<svg width="222" height="55" viewBox="0 0 222 55" fill="none" xmlns="http://www.w3.org/2000/svg">
<rect opacity="0.9" x="44.5" y="0.5" width="54" height="54" rx="7.5" fill="white" stroke="#C4C4C4" stroke-dasharray="3 3"/>
<circle cx="10.5" cy="27.5" r="9.5" stroke="#C4C4C4" stroke-width="2"/>
<g clip-path="url(#clip0)">
<path d="M65.2497 34.5313C63.6488 34.5313 62.2247 33.5062 61.7076 31.9802L61.6727 31.8652C61.5507 31.4611 61.4996 31.1212 61.4996 30.7812V23.9629L59.0736 32.0611C58.7616 33.2522 59.4726 34.4871 60.6656 34.8162L76.129 38.9574C76.322 39.0074 76.515 39.0314 76.7051 39.0314C77.701 39.0314 78.6111 38.3703 78.8661 37.3962L79.767 34.5313H65.2497Z" fill="#C4C4C4"/>
<path d="M67.9997 24.031C69.1027 24.031 69.9996 23.1339 69.9996 22.0309C69.9996 20.9278 69.1027 20.0308 67.9997 20.0308C66.8966 20.0308 65.9996 20.9278 65.9996 22.0309C65.9996 23.1339 66.8966 24.031 67.9997 24.031Z" fill="#C4C4C4"/>
<path d="M80.4999 17.0305H65.4995C64.1216 17.0305 62.9995 18.1526 62.9995 19.5307V30.5309C62.9995 31.9089 64.1216 33.031 65.4995 33.031H80.4999C81.878 33.031 83.0001 31.9089 83.0001 30.5309V19.5307C83.0001 18.1526 81.878 17.0305 80.4999 17.0305ZM65.4995 19.0306H80.4999C80.776 19.0306 81 19.2546 81 19.5307V26.6299L77.8409 22.9437C77.5059 22.5507 77.0208 22.3407 76.4998 22.3288C75.9818 22.3317 75.4959 22.5617 75.1639 22.9598L71.4497 27.4178L70.2397 26.2107C69.5558 25.5268 68.4426 25.5268 67.7596 26.2107L64.9996 28.9698V19.5307C64.9996 19.2546 65.2236 19.0306 65.4995 19.0306Z" fill="#C4C4C4"/>
</g>
<g clip-path="url(#clip1)">
<path d="M65.9893 33.7591C64.4551 33.7591 63.0904 32.7768 62.5948 31.3143L62.5613 31.2041C62.4444 30.8168 62.3955 30.4912 62.3955 30.1653V23.6311L60.0705 31.3919C59.7715 32.5334 60.4529 33.7168 61.5962 34.0322L76.4153 38.0008C76.6003 38.0487 76.7852 38.0717 76.9674 38.0717C77.9218 38.0717 78.7939 37.4383 79.0384 36.5047L79.9018 33.7591H65.9893Z" fill="#C4C4C4"/>
<path d="M68.6247 23.6963C69.6817 23.6963 70.5412 22.8367 70.5412 21.7796C70.5412 20.7225 69.6817 19.8628 68.6247 19.8628C67.5676 19.8628 66.7079 20.7225 66.7079 21.7796C66.7079 22.8367 67.5676 23.6963 68.6247 23.6963Z" fill="#C4C4C4"/>
<path d="M80.604 16.9875H66.2287C64.9082 16.9875 63.8328 18.0629 63.8328 19.3836V29.9254C63.8328 31.246 64.9082 32.3214 66.2287 32.3214H80.604C81.9247 32.3214 83 31.246 83 29.9254V19.3836C83 18.0629 81.9247 16.9875 80.604 16.9875ZM66.2287 18.9043H80.604C80.8686 18.9043 81.0832 19.1189 81.0832 19.3836V26.1869L78.0559 22.6543C77.7347 22.2778 77.2699 22.0765 76.7706 22.0651C76.2742 22.0679 75.8085 22.2883 75.4903 22.6698L71.9309 26.942L70.7713 25.7853C70.1159 25.1298 69.0492 25.1298 68.3946 25.7853L65.7496 28.4294V19.3836C65.7496 19.1189 65.9642 18.9043 66.2287 18.9043Z" fill="#C4C4C4"/>
</g>
<path d="M116.119 20H117.655V15.5604H121.98V14.2429H117.655V11.1406H122.433V9.81818H116.119V20ZM128.561 16.8331C128.566 18.1307 127.602 18.7472 126.767 18.7472C125.847 18.7472 125.21 18.081 125.21 17.0419V12.3636H123.724V17.2209C123.724 19.1151 124.763 20.0994 126.23 20.0994C127.378 20.0994 128.159 19.4929 128.512 18.6776H128.591V20H130.053V12.3636H128.561V16.8331ZM135.341 20.1541C137.007 20.1541 138.185 19.3338 138.523 18.0909L137.116 17.8374C136.848 18.5582 136.201 18.9261 135.356 18.9261C134.083 18.9261 133.228 18.1009 133.189 16.6293H138.618V16.1023C138.618 13.343 136.967 12.2642 135.237 12.2642C133.109 12.2642 131.707 13.8849 131.707 16.2315C131.707 18.603 133.089 20.1541 135.341 20.1541ZM133.194 15.5156C133.253 14.4318 134.039 13.4922 135.247 13.4922C136.4 13.4922 137.156 14.3473 137.161 15.5156H133.194ZM141.753 9.81818H140.267V20H141.753V9.81818ZM153.131 12.4929H154.612C154.568 10.8622 153.126 9.67898 151.058 9.67898C149.014 9.67898 147.448 10.8473 147.448 12.6023C147.448 14.0192 148.463 14.8494 150.098 15.2919L151.301 15.62C152.39 15.9084 153.23 16.2663 153.23 17.1712C153.23 18.1655 152.281 18.8217 150.973 18.8217C149.79 18.8217 148.806 18.2947 148.716 17.1861H147.175C147.274 19.0305 148.701 20.169 150.983 20.169C153.374 20.169 154.752 18.9112 154.752 17.1861C154.752 15.3516 153.116 14.6406 151.823 14.3224L150.829 14.0639C150.034 13.8601 148.975 13.4872 148.98 12.5128C148.98 11.6477 149.77 11.0064 151.023 11.0064C152.191 11.0064 153.021 11.5533 153.131 12.4929ZM157.408 22.8636C158.636 22.8636 159.411 22.2223 159.854 21.0192L163.011 12.3786L161.405 12.3636L159.471 18.2898H159.391L157.457 12.3636H155.866L158.661 20.0994L158.477 20.6065C158.099 21.6207 157.567 21.7053 156.751 21.4815L156.393 22.6996C156.572 22.7791 156.96 22.8636 157.408 22.8636ZM170.134 14.228C169.825 13.0398 168.896 12.2642 167.245 12.2642C165.52 12.2642 164.297 13.174 164.297 14.5263C164.297 15.6101 164.953 16.331 166.385 16.6491L167.678 16.9325C168.414 17.0966 168.757 17.4247 168.757 17.902C168.757 18.4936 168.125 18.956 167.151 18.956C166.261 18.956 165.689 18.5732 165.51 17.8224L164.073 18.0412C164.322 19.3935 165.445 20.1541 167.161 20.1541C169.005 20.1541 170.283 19.1747 170.283 17.7926C170.283 16.7138 169.597 16.0476 168.195 15.7244L166.982 15.446C166.142 15.2472 165.779 14.9638 165.784 14.4467C165.779 13.8601 166.415 13.4425 167.26 13.4425C168.185 13.4425 168.612 13.9545 168.786 14.4666L170.134 14.228ZM175.482 12.3636H173.916V10.5341H172.429V12.3636H171.311V13.5568H172.429V18.0661C172.424 19.4531 173.483 20.1243 174.657 20.0994C175.129 20.0945 175.447 20.005 175.621 19.9403L175.353 18.7124C175.253 18.7322 175.069 18.777 174.831 18.777C174.348 18.777 173.916 18.6179 173.916 17.7578V13.5568H175.482V12.3636ZM180.335 20.1541C182.001 20.1541 183.179 19.3338 183.517 18.0909L182.11 17.8374C181.842 18.5582 181.195 18.9261 180.35 18.9261C179.078 18.9261 178.222 18.1009 178.183 16.6293H183.612V16.1023C183.612 13.343 181.961 12.2642 180.231 12.2642C178.103 12.2642 176.701 13.8849 176.701 16.2315C176.701 18.603 178.083 20.1541 180.335 20.1541ZM178.188 15.5156C178.247 14.4318 179.033 13.4922 180.241 13.4922C181.394 13.4922 182.15 14.3473 182.155 15.5156H178.188ZM185.261 20H186.748V15.2919C186.748 14.2628 187.468 13.5469 188.314 13.5469C189.139 13.5469 189.711 14.0938 189.711 14.924V20H191.192V15.1328C191.192 14.2131 191.754 13.5469 192.723 13.5469C193.509 13.5469 194.155 13.9844 194.155 15.0185V20H195.642V14.8793C195.642 13.1342 194.667 12.2642 193.285 12.2642C192.186 12.2642 191.361 12.7912 190.993 13.6065H190.914C190.581 12.7713 189.88 12.2642 188.86 12.2642C187.851 12.2642 187.1 12.7663 186.782 13.6065H186.688V12.3636H185.261V20Z" fill="#25345C"/>
<path d="M124.963 40.9091C124.963 37.6527 123.014 35.679 120.379 35.679C117.734 35.679 115.79 37.6527 115.79 40.9091C115.79 44.1605 117.734 46.1392 120.379 46.1392C123.014 46.1392 124.963 44.1655 124.963 40.9091ZM123.442 40.9091C123.442 43.3899 122.129 44.7372 120.379 44.7372C118.624 44.7372 117.317 43.3899 117.317 40.9091C117.317 38.4283 118.624 37.081 120.379 37.081C122.129 37.081 123.442 38.4283 123.442 40.9091ZM126.759 46H128.246V38.3636H126.759V46ZM127.51 37.1854C128.022 37.1854 128.449 36.7876 128.449 36.3004C128.449 35.8132 128.022 35.4105 127.51 35.4105C126.993 35.4105 126.57 35.8132 126.57 36.3004C126.57 36.7876 126.993 37.1854 127.51 37.1854ZM131.732 35.8182H130.245V46H131.732V35.8182ZM137.437 48.8636H138.923V44.8118H139.013C139.281 45.299 139.828 46.1491 141.22 46.1491C143.07 46.1491 144.412 44.6676 144.412 42.1967C144.412 39.7209 143.05 38.2642 141.205 38.2642C139.788 38.2642 139.276 39.1293 139.013 39.6016H138.888V38.3636H137.437V48.8636ZM138.893 42.1818C138.893 40.5859 139.589 39.527 140.887 39.527C142.234 39.527 142.911 40.6655 142.911 42.1818C142.911 43.7131 142.214 44.8814 140.887 44.8814C139.609 44.8814 138.893 43.7876 138.893 42.1818ZM146.077 46H147.564V41.3366C147.564 40.3374 148.335 39.6165 149.388 39.6165C149.697 39.6165 150.045 39.6712 150.164 39.706V38.2841C150.015 38.2642 149.722 38.2493 149.533 38.2493C148.638 38.2493 147.872 38.7564 147.594 39.5767H147.514V38.3636H146.077V46ZM154.468 46.1541C156.134 46.1541 157.312 45.3338 157.65 44.0909L156.243 43.8374C155.975 44.5582 155.328 44.9261 154.483 44.9261C153.21 44.9261 152.355 44.1009 152.316 42.6293H157.744V42.1023C157.744 39.343 156.094 38.2642 154.364 38.2642C152.236 38.2642 150.834 39.8849 150.834 42.2315C150.834 44.603 152.216 46.1541 154.468 46.1541ZM152.32 41.5156C152.38 40.4318 153.166 39.4922 154.374 39.4922C155.527 39.4922 156.283 40.3473 156.288 41.5156H152.32ZM165.116 40.228C164.808 39.0398 163.878 38.2642 162.228 38.2642C160.502 38.2642 159.279 39.174 159.279 40.5263C159.279 41.6101 159.936 42.331 161.368 42.6491L162.66 42.9325C163.396 43.0966 163.739 43.4247 163.739 43.902C163.739 44.4936 163.108 44.956 162.133 44.956C161.243 44.956 160.672 44.5732 160.493 43.8224L159.056 44.0412C159.304 45.3935 160.428 46.1541 162.143 46.1541C163.988 46.1541 165.265 45.1747 165.265 43.7926C165.265 42.7138 164.579 42.0476 163.177 41.7244L161.964 41.446C161.124 41.2472 160.761 40.9638 160.766 40.4467C160.761 39.8601 161.397 39.4425 162.243 39.4425C163.167 39.4425 163.595 39.9545 163.769 40.4666L165.116 40.228ZM172.622 40.228C172.314 39.0398 171.384 38.2642 169.733 38.2642C168.008 38.2642 166.785 39.174 166.785 40.5263C166.785 41.6101 167.442 42.331 168.873 42.6491L170.166 42.9325C170.902 43.0966 171.245 43.4247 171.245 43.902C171.245 44.4936 170.613 44.956 169.639 44.956C168.749 44.956 168.177 44.5732 167.998 43.8224L166.562 44.0412C166.81 45.3935 167.934 46.1541 169.649 46.1541C171.493 46.1541 172.771 45.1747 172.771 43.7926C172.771 42.7138 172.085 42.0476 170.683 41.7244L169.47 41.446C168.63 41.2472 168.267 40.9638 168.272 40.4467C168.267 39.8601 168.903 39.4425 169.748 39.4425C170.673 39.4425 171.101 39.9545 171.275 40.4666L172.622 40.228ZM179.243 42.8331C179.248 44.1307 178.283 44.7472 177.448 44.7472C176.528 44.7472 175.892 44.081 175.892 43.0419V38.3636H174.406V43.2209C174.406 45.1151 175.445 46.0994 176.911 46.0994C178.06 46.0994 178.84 45.4929 179.193 44.6776H179.273V46H180.734V38.3636H179.243V42.8331ZM182.732 46H184.218V41.3366C184.218 40.3374 184.989 39.6165 186.043 39.6165C186.351 39.6165 186.699 39.6712 186.818 39.706V38.2841C186.669 38.2642 186.376 38.2493 186.187 38.2493C185.292 38.2493 184.526 38.7564 184.248 39.5767H184.169V38.3636H182.732V46ZM191.123 46.1541C192.788 46.1541 193.966 45.3338 194.304 44.0909L192.897 43.8374C192.629 44.5582 191.983 44.9261 191.137 44.9261C189.865 44.9261 189.01 44.1009 188.97 42.6293H194.399V42.1023C194.399 39.343 192.748 38.2642 191.018 38.2642C188.89 38.2642 187.488 39.8849 187.488 42.2315C187.488 44.603 188.87 46.1541 191.123 46.1541ZM188.975 41.5156C189.034 40.4318 189.82 39.4922 191.028 39.4922C192.181 39.4922 192.937 40.3473 192.942 41.5156H188.975ZM201.24 35.8182H199.753V46H201.24V35.8182ZM206.456 46.1541C208.609 46.1541 210.016 44.5781 210.016 42.2166C210.016 39.8402 208.609 38.2642 206.456 38.2642C204.303 38.2642 202.896 39.8402 202.896 42.2166C202.896 44.5781 204.303 46.1541 206.456 46.1541ZM206.461 44.9062C205.054 44.9062 204.398 43.6783 204.398 42.2116C204.398 40.75 205.054 39.5071 206.461 39.5071C207.858 39.5071 208.514 40.75 208.514 42.2116C208.514 43.6783 207.858 44.9062 206.461 44.9062ZM213.098 46H214.61L216.161 40.4865H216.275L217.826 46H219.343L221.585 38.3636H220.048L218.562 43.9467H218.487L216.996 38.3636H215.46L213.958 43.9716H213.884L212.387 38.3636H210.851L213.098 46Z" fill="#25345C"/>
<defs>
<clipPath id="clip0">
<rect width="24" height="24" fill="white" transform="translate(59 16)"/>
</clipPath>
<clipPath id="clip1">
<rect width="23" height="23" fill="white" transform="translate(60 16)"/>
</clipPath>
</defs>
</svg>
