<svg width="316" height="98" viewBox="0 0 316 98" fill="none" xmlns="http://www.w3.org/2000/svg">
<rect opacity="0.9" x="0.5" y="0.5" width="69" height="69" rx="11.5" fill="white" stroke="#C4C4C4" stroke-dasharray="3 3"/>
<path d="M47.1739 26.6521H43.8348L41.9913 23.8695C41.2957 22.826 40.0783 22.2 38.8261 22.2H31.1739C29.9217 22.2 28.7043 22.826 28.0087 23.8695L26.1652 26.6521H22.8261C20.7043 26.6521 19 28.3565 19 30.4782V43.9739C19 46.0956 20.7043 47.8 22.8261 47.8H47.1739C49.2957 47.8 51 46.0956 51 43.9739V30.4782C51 28.3565 49.2957 26.6521 47.1739 26.6521ZM35 44.6695C30.2348 44.6695 26.3739 40.8086 26.3739 36.0434C26.3739 31.2782 30.2348 27.4521 35 27.4521C39.7652 27.4521 43.6261 31.313 43.6261 36.0782C43.6261 40.8086 39.7652 44.6695 35 44.6695ZM46.687 32.0434C46.6522 32.0434 46.6174 32.0434 46.5478 32.0434H45.1565C44.5304 32.0086 44.0435 31.4869 44.0783 30.8608C44.113 30.2695 44.5652 29.8173 45.1565 29.7826H46.5478C47.1739 29.7478 47.6957 30.2347 47.7304 30.8608C47.7652 31.4869 47.313 32.0086 46.687 32.0434Z" fill="#C4C4C4"/>
<path d="M35 31.2783C32.3565 31.2783 30.2 33.4348 30.2 36.0783C30.2 38.7218 32.3565 40.8435 35 40.8435C37.6435 40.8435 39.8 38.687 39.8 36.0435C39.8 33.4001 37.6435 31.2783 35 31.2783Z" fill="#C4C4C4"/>
<rect opacity="0.9" x="164.5" y="0.5" width="69" height="69" rx="11.5" fill="white" stroke="#C4C4C4" stroke-dasharray="3 3"/>
<path d="M211.174 26.6521H207.835L205.991 23.8695C205.296 22.826 204.078 22.2 202.826 22.2H195.174C193.922 22.2 192.704 22.826 192.009 23.8695L190.165 26.6521H186.826C184.704 26.6521 183 28.3565 183 30.4782V43.9739C183 46.0956 184.704 47.8 186.826 47.8H211.174C213.296 47.8 215 46.0956 215 43.9739V30.4782C215 28.3565 213.296 26.6521 211.174 26.6521ZM199 44.6695C194.235 44.6695 190.374 40.8086 190.374 36.0434C190.374 31.2782 194.235 27.4521 199 27.4521C203.765 27.4521 207.626 31.313 207.626 36.0782C207.626 40.8086 203.765 44.6695 199 44.6695ZM210.687 32.0434C210.652 32.0434 210.617 32.0434 210.548 32.0434H209.157C208.53 32.0086 208.043 31.4869 208.078 30.8608C208.113 30.2695 208.565 29.8173 209.157 29.7826H210.548C211.174 29.7478 211.696 30.2347 211.73 30.8608C211.765 31.4869 211.313 32.0086 210.687 32.0434Z" fill="#C4C4C4"/>
<path d="M199 31.2783C196.357 31.2783 194.2 33.4348 194.2 36.0783C194.2 38.7218 196.357 40.8435 199 40.8435C201.643 40.8435 203.8 38.687 203.8 36.0435C203.8 33.4001 201.643 31.2783 199 31.2783Z" fill="#C4C4C4"/>
<rect opacity="0.9" x="246.5" y="1.5" width="69" height="69" rx="11.5" fill="white" stroke="#C4C4C4" stroke-dasharray="3 3"/>
<path d="M293.174 27.6521H289.835L287.991 24.8695C287.296 23.826 286.078 23.2 284.826 23.2H277.174C275.922 23.2 274.704 23.826 274.009 24.8695L272.165 27.6521H268.826C266.704 27.6521 265 29.3565 265 31.4782V44.9739C265 47.0956 266.704 48.8 268.826 48.8H293.174C295.296 48.8 297 47.0956 297 44.9739V31.4782C297 29.3565 295.296 27.6521 293.174 27.6521ZM281 45.6695C276.235 45.6695 272.374 41.8086 272.374 37.0434C272.374 32.2782 276.235 28.4521 281 28.4521C285.765 28.4521 289.626 32.313 289.626 37.0782C289.626 41.8086 285.765 45.6695 281 45.6695ZM292.687 33.0434C292.652 33.0434 292.617 33.0434 292.548 33.0434H291.157C290.53 33.0086 290.043 32.4869 290.078 31.8608C290.113 31.2695 290.565 30.8173 291.157 30.7826H292.548C293.174 30.7478 293.696 31.2347 293.73 31.8608C293.765 32.4869 293.313 33.0086 292.687 33.0434Z" fill="#C4C4C4"/>
<path d="M281 32.2783C278.357 32.2783 276.2 34.4348 276.2 37.0783C276.2 39.7218 278.357 41.8435 281 41.8435C283.643 41.8435 285.8 39.687 285.8 37.0435C285.8 34.4001 283.643 32.2783 281 32.2783Z" fill="#C4C4C4"/>
<rect opacity="0.9" x="82.5" y="0.5" width="69" height="69" rx="11.5" fill="white" stroke="#C4C4C4" stroke-dasharray="3 3"/>
<path d="M129.174 26.6521H125.835L123.991 23.8695C123.296 22.826 122.078 22.2 120.826 22.2H113.174C111.922 22.2 110.704 22.826 110.009 23.8695L108.165 26.6521H104.826C102.704 26.6521 101 28.3565 101 30.4782V43.9739C101 46.0956 102.704 47.8 104.826 47.8H129.174C131.296 47.8 133 46.0956 133 43.9739V30.4782C133 28.3565 131.296 26.6521 129.174 26.6521ZM117 44.6695C112.235 44.6695 108.374 40.8086 108.374 36.0434C108.374 31.2782 112.235 27.4521 117 27.4521C121.765 27.4521 125.626 31.313 125.626 36.0782C125.626 40.8086 121.765 44.6695 117 44.6695ZM128.687 32.0434C128.652 32.0434 128.617 32.0434 128.548 32.0434H127.157C126.53 32.0086 126.043 31.4869 126.078 30.8608C126.113 30.2695 126.565 29.8173 127.157 29.7826H128.548C129.174 29.7478 129.696 30.2347 129.73 30.8608C129.765 31.4869 129.313 32.0086 128.687 32.0434Z" fill="#C4C4C4"/>
<path d="M117 31.2783C114.357 31.2783 112.2 33.4348 112.2 36.0783C112.2 38.7218 114.357 40.8435 117 40.8435C119.643 40.8435 121.8 38.687 121.8 36.0435C121.8 33.4001 119.643 31.2783 117 31.2783Z" fill="#C4C4C4"/>
<path d="M18.1186 94H19.6548V89.5604H23.9801V88.2429H19.6548V85.1406H24.4325V83.8182H18.1186V94ZM26.1067 94H27.5932V89.3366C27.5932 88.3374 28.3638 87.6165 29.4178 87.6165C29.726 87.6165 30.074 87.6712 30.1934 87.706V86.2841C30.0442 86.2642 29.7509 86.2493 29.562 86.2493C28.6671 86.2493 27.9015 86.7564 27.623 87.5767H27.5435V86.3636H26.1067V94ZM34.4229 94.1541C36.5756 94.1541 37.9826 92.5781 37.9826 90.2166C37.9826 87.8402 36.5756 86.2642 34.4229 86.2642C32.2702 86.2642 30.8633 87.8402 30.8633 90.2166C30.8633 92.5781 32.2702 94.1541 34.4229 94.1541ZM34.4279 92.9062C33.021 92.9062 32.3647 91.6783 32.3647 90.2116C32.3647 88.75 33.021 87.5071 34.4279 87.5071C35.8249 87.5071 36.4812 88.75 36.4812 90.2116C36.4812 91.6783 35.8249 92.9062 34.4279 92.9062ZM41.1284 89.4659C41.1284 88.2479 41.8741 87.5518 42.9082 87.5518C43.9174 87.5518 44.5289 88.2131 44.5289 89.3217V94H46.0154V89.1428C46.0154 87.2536 44.9764 86.2642 43.4153 86.2642C42.2669 86.2642 41.5162 86.7962 41.1632 87.6065H41.0687V86.3636H39.6419V94H41.1284V89.4659ZM51.5737 86.3636H50.0076V84.5341H48.5211V86.3636H47.4025V87.5568H48.5211V92.0661C48.5162 93.4531 49.5751 94.1243 50.7484 94.0994C51.2207 94.0945 51.5389 94.005 51.7129 93.9403L51.4444 92.7124C51.345 92.7322 51.161 92.777 50.9224 92.777C50.4402 92.777 50.0076 92.6179 50.0076 91.7578V87.5568H51.5737V86.3636Z" fill="#25345C"/>
<path d="M102.119 95H106.021C108.388 95 109.457 93.8217 109.457 92.2607C109.457 90.6847 108.353 89.7947 107.344 89.7401V89.6406C108.278 89.402 109.059 88.7656 109.059 87.4929C109.059 85.9865 108.015 84.8182 105.847 84.8182H102.119V95ZM103.655 93.6825V90.4212H105.927C107.16 90.4212 107.93 91.2166 107.93 92.1861C107.93 93.0412 107.349 93.6825 105.872 93.6825H103.655ZM103.655 89.223V86.1257H105.753C106.971 86.1257 107.553 86.767 107.553 87.6122C107.553 88.5966 106.747 89.223 105.713 89.223H103.655ZM113.382 95.169C114.645 95.169 115.355 94.5277 115.639 93.956H115.699V95H117.15V89.929C117.15 87.7067 115.4 87.2642 114.187 87.2642C112.805 87.2642 111.532 87.821 111.035 89.2131L112.432 89.5312C112.651 88.9893 113.208 88.4673 114.207 88.4673C115.167 88.4673 115.659 88.9695 115.659 89.8345V89.8693C115.659 90.4112 115.102 90.4013 113.73 90.5604C112.283 90.7294 110.801 91.1072 110.801 92.8423C110.801 94.3438 111.93 95.169 113.382 95.169ZM113.705 93.9759C112.865 93.9759 112.258 93.598 112.258 92.8622C112.258 92.0668 112.964 91.7834 113.824 91.669C114.306 91.6044 115.45 91.4751 115.664 91.2614V92.2457C115.664 93.1506 114.943 93.9759 113.705 93.9759ZM122.347 95.1541C124.151 95.1541 125.32 94.0703 125.484 92.5838H124.037C123.848 93.4091 123.207 93.8963 122.357 93.8963C121.099 93.8963 120.289 92.8473 120.289 91.1818C120.289 89.5462 121.114 88.517 122.357 88.517C123.301 88.517 123.878 89.1136 124.037 89.8295H125.484C125.325 88.2884 124.067 87.2642 122.332 87.2642C120.179 87.2642 118.787 88.8849 118.787 91.2166C118.787 93.5185 120.129 95.1541 122.347 95.1541ZM127.074 95H128.56V92.2905L129.301 91.5497L131.896 95H133.721L130.419 90.6399L133.512 87.3636H131.732L128.689 90.5952H128.56V84.8182H127.074V95Z" fill="#25345C"/>
<path d="M182.415 94C185.517 94 187.312 92.076 187.312 88.8942C187.312 85.7273 185.517 83.8182 182.519 83.8182H179.119V94H182.415ZM180.655 92.6577V85.1605H182.425C184.652 85.1605 185.8 86.4929 185.8 88.8942C185.8 91.3054 184.652 92.6577 182.33 92.6577H180.655ZM189.103 94H190.589V89.3366C190.589 88.3374 191.36 87.6165 192.414 87.6165C192.722 87.6165 193.07 87.6712 193.189 87.706V86.2841C193.04 86.2642 192.747 86.2493 192.558 86.2493C191.663 86.2493 190.898 86.7564 190.619 87.5767H190.54V86.3636H189.103V94ZM194.476 94H195.962V86.3636H194.476V94ZM195.227 85.1854C195.739 85.1854 196.166 84.7876 196.166 84.3004C196.166 83.8132 195.739 83.4105 195.227 83.4105C194.71 83.4105 194.287 83.8132 194.287 84.3004C194.287 84.7876 194.71 85.1854 195.227 85.1854ZM204.495 86.3636H202.899L200.97 92.2401H200.89L198.956 86.3636H197.361L200.135 94H201.726L204.495 86.3636ZM208.91 94.1541C210.575 94.1541 211.753 93.3338 212.091 92.0909L210.684 91.8374C210.416 92.5582 209.77 92.9261 208.925 92.9261C207.652 92.9261 206.797 92.1009 206.757 90.6293H212.186V90.1023C212.186 87.343 210.535 86.2642 208.805 86.2642C206.677 86.2642 205.275 87.8849 205.275 90.2315C205.275 92.603 206.657 94.1541 208.91 94.1541ZM206.762 89.5156C206.822 88.4318 207.607 87.4922 208.815 87.4922C209.969 87.4922 210.724 88.3473 210.729 89.5156H206.762ZM213.835 94H215.322V89.3366C215.322 88.3374 216.092 87.6165 217.146 87.6165C217.455 87.6165 217.803 87.6712 217.922 87.706V86.2841C217.773 86.2642 217.479 86.2493 217.29 86.2493C216.396 86.2493 215.63 86.7564 215.352 87.5767H215.272V86.3636H213.835V94Z" fill="#25345C"/>
<path d="M246.119 94H247.655V90.4205H249.743C252.104 90.4205 253.273 88.9936 253.273 87.1143C253.273 85.2401 252.114 83.8182 249.748 83.8182H246.119V94ZM247.655 89.1179V85.1357H249.584C251.105 85.1357 251.727 85.9609 251.727 87.1143C251.727 88.2678 251.105 89.1179 249.604 89.1179H247.655ZM257.108 94.169C258.371 94.169 259.082 93.5277 259.365 92.956H259.425V94H260.877V88.929C260.877 86.7067 259.127 86.2642 257.914 86.2642C256.532 86.2642 255.259 86.821 254.762 88.2131L256.159 88.5312C256.377 87.9893 256.934 87.4673 257.934 87.4673C258.893 87.4673 259.385 87.9695 259.385 88.8345V88.8693C259.385 89.4112 258.828 89.4013 257.456 89.5604C256.01 89.7294 254.528 90.1072 254.528 91.8423C254.528 93.3438 255.657 94.169 257.108 94.169ZM257.431 92.9759C256.591 92.9759 255.985 92.598 255.985 91.8622C255.985 91.0668 256.691 90.7834 257.551 90.669C258.033 90.6044 259.176 90.4751 259.39 90.2614V91.2457C259.39 92.1506 258.669 92.9759 257.431 92.9759ZM268.579 88.228C268.271 87.0398 267.341 86.2642 265.691 86.2642C263.965 86.2642 262.742 87.174 262.742 88.5263C262.742 89.6101 263.399 90.331 264.83 90.6491L266.123 90.9325C266.859 91.0966 267.202 91.4247 267.202 91.902C267.202 92.4936 266.57 92.956 265.596 92.956C264.706 92.956 264.134 92.5732 263.955 91.8224L262.519 92.0412C262.767 93.3935 263.891 94.1541 265.606 94.1541C267.45 94.1541 268.728 93.1747 268.728 91.7926C268.728 90.7138 268.042 90.0476 266.64 89.7244L265.427 89.446C264.587 89.2472 264.224 88.9638 264.229 88.4467C264.224 87.8601 264.86 87.4425 265.705 87.4425C266.63 87.4425 267.058 87.9545 267.232 88.4666L268.579 88.228ZM276.085 88.228C275.777 87.0398 274.847 86.2642 273.196 86.2642C271.471 86.2642 270.248 87.174 270.248 88.5263C270.248 89.6101 270.904 90.331 272.336 90.6491L273.629 90.9325C274.365 91.0966 274.708 91.4247 274.708 91.902C274.708 92.4936 274.076 92.956 273.102 92.956C272.212 92.956 271.64 92.5732 271.461 91.8224L270.025 92.0412C270.273 93.3935 271.397 94.1541 273.112 94.1541C274.956 94.1541 276.234 93.1747 276.234 91.7926C276.234 90.7138 275.548 90.0476 274.146 89.7244L272.933 89.446C272.093 89.2472 271.73 88.9638 271.735 88.4467C271.73 87.8601 272.366 87.4425 273.211 87.4425C274.136 87.4425 274.564 87.9545 274.738 88.4666L276.085 88.228ZM281.16 94.1541C282.825 94.1541 284.003 93.3338 284.341 92.0909L282.934 91.8374C282.666 92.5582 282.02 92.9261 281.175 92.9261C279.902 92.9261 279.047 92.1009 279.007 90.6293H284.436V90.1023C284.436 87.343 282.785 86.2642 281.055 86.2642C278.927 86.2642 277.525 87.8849 277.525 90.2315C277.525 92.603 278.907 94.1541 281.16 94.1541ZM279.012 89.5156C279.072 88.4318 279.857 87.4922 281.065 87.4922C282.219 87.4922 282.974 88.3473 282.979 89.5156H279.012ZM287.572 89.4659C287.572 88.2479 288.317 87.5518 289.352 87.5518C290.361 87.5518 290.972 88.2131 290.972 89.3217V94H292.459V89.1428C292.459 87.2536 291.42 86.2642 289.859 86.2642C288.71 86.2642 287.96 86.7962 287.607 87.6065H287.512V86.3636H286.085V94H287.572V89.4659ZM297.654 97.0227C299.598 97.0227 301.099 96.1328 301.099 94.169V86.3636H299.643V87.6016H299.533C299.27 87.1293 298.743 86.2642 297.321 86.2642C295.477 86.2642 294.119 87.7209 294.119 90.152C294.119 92.5881 295.506 93.8857 297.311 93.8857C298.713 93.8857 299.255 93.0952 299.523 92.608H299.618V94.1094C299.618 95.3075 298.798 95.8246 297.669 95.8246C296.431 95.8246 295.949 95.2031 295.685 94.7656L294.408 95.2926C294.81 96.2273 295.83 97.0227 297.654 97.0227ZM297.639 92.6527C296.312 92.6527 295.621 91.6335 295.621 90.1321C295.621 88.6655 296.297 87.527 297.639 87.527C298.937 87.527 299.633 88.5859 299.633 90.1321C299.633 91.7081 298.922 92.6527 297.639 92.6527ZM306.384 94.1541C308.05 94.1541 309.228 93.3338 309.566 92.0909L308.159 91.8374C307.891 92.5582 307.244 92.9261 306.399 92.9261C305.126 92.9261 304.271 92.1009 304.232 90.6293H309.661V90.1023C309.661 87.343 308.01 86.2642 306.28 86.2642C304.152 86.2642 302.75 87.8849 302.75 90.2315C302.75 92.603 304.132 94.1541 306.384 94.1541ZM304.237 89.5156C304.296 88.4318 305.082 87.4922 306.29 87.4922C307.443 87.4922 308.199 88.3473 308.204 89.5156H304.237ZM311.31 94H312.796V89.3366C312.796 88.3374 313.567 87.6165 314.621 87.6165C314.929 87.6165 315.277 87.6712 315.396 87.706V86.2841C315.247 86.2642 314.954 86.2493 314.765 86.2493C313.87 86.2493 313.105 86.7564 312.826 87.5767H312.747V86.3636H311.31V94Z" fill="#25345C"/>
</svg>
