<svg width="24" height="24" viewBox="0 0 24 24" fill="none" xmlns="http://www.w3.org/2000/svg">
<g clip-path="url(#clip0)">
<path d="M21.7906 3.3891H2.20941C0.974859 3.3891 0 4.39176 0 5.59851V18.4016C0 19.6361 1.00266 20.611 2.20941 20.611H21.7906C23.0251 20.611 24 19.6083 24 18.4016V5.59851C24 4.36391 22.9973 3.3891 21.7906 3.3891ZM22.5938 18.4016C22.5938 18.8448 22.2348 19.2047 21.7906 19.2047H2.20941C1.76616 19.2047 1.40625 18.8458 1.40625 18.4016V5.59851C1.40625 5.15526 1.76522 4.79535 2.20941 4.79535H21.7906C22.2338 4.79535 22.5938 5.15432 22.5938 5.59851V18.4016Z" fill="#25345C"/>
<path d="M9.40968 13.7205C9.81825 13.263 10.0672 12.6602 10.0672 12C10.0672 10.5741 8.90714 9.41406 7.48125 9.41406C6.05536 9.41406 4.89534 10.5741 4.89534 12C4.89534 12.6602 5.1443 13.263 5.55281 13.7204C4.48205 14.3732 3.76561 15.5521 3.76561 16.8953C3.76561 17.2836 4.08042 17.5984 4.46873 17.5984H10.4937C10.882 17.5984 11.1968 17.2836 11.1968 16.8953C11.1968 15.5521 10.4804 14.3732 9.40968 13.7205ZM7.48125 10.8203C8.13173 10.8203 8.66095 11.3495 8.66095 12C8.66095 12.6505 8.13173 13.1797 7.48125 13.1797C6.83076 13.1797 6.30159 12.6505 6.30159 12C6.30159 11.3495 6.83076 10.8203 7.48125 10.8203ZM5.28126 16.1922C5.57939 15.2616 6.4529 14.586 7.48125 14.586C8.50959 14.586 9.38306 15.2615 9.68123 16.1922H5.28126Z" fill="#25345C"/>
<path d="M19.5313 10.1672H14.2594C13.8711 10.1672 13.5562 10.482 13.5562 10.8704C13.5562 11.2587 13.8711 11.5735 14.2594 11.5735H19.5313C19.9196 11.5735 20.2344 11.2587 20.2344 10.8704C20.2344 10.482 19.9196 10.1672 19.5313 10.1672Z" fill="#25345C"/>
<path d="M19.5313 6.40155H4.46873C4.08042 6.40155 3.76561 6.71636 3.76561 7.10468C3.76561 7.49299 4.08042 7.8078 4.46873 7.8078H19.5313C19.9196 7.8078 20.2344 7.49299 20.2344 7.10468C20.2344 6.71636 19.9196 6.40155 19.5313 6.40155Z" fill="#25345C"/>
<path d="M19.5313 13.1797H14.2594C13.8711 13.1797 13.5562 13.4946 13.5562 13.8829C13.5562 14.2712 13.8711 14.586 14.2594 14.586H19.5313C19.9196 14.586 20.2344 14.2712 20.2344 13.8829C20.2344 13.4946 19.9196 13.1797 19.5313 13.1797Z" fill="#25345C"/>
<path d="M18.025 16.1923H14.2594C13.8711 16.1923 13.5562 16.5071 13.5562 16.8954C13.5562 17.2837 13.8711 17.5985 14.2594 17.5985H18.025C18.4133 17.5985 18.7281 17.2837 18.7281 16.8954C18.7281 16.5071 18.4133 16.1923 18.025 16.1923Z" fill="#25345C"/>
</g>
<defs>
<clipPath id="clip0">
<rect width="24" height="24" fill="white"/>
</clipPath>
</defs>
</svg>
