<svg width="135" height="78" viewBox="0 0 135 78" fill="none" xmlns="http://www.w3.org/2000/svg">
<path d="M17.7826 77.5625L4.52256 65.625V77.5625H0.666794V57.4688H1.07432L14.3344 69.625V57.4688H18.1901V77.5625H17.7826Z" fill="#25345C"/>
<path d="M23.2998 77.5625L33.6132 57.4688H33.9894L44.3027 77.5625H40.1021L38.5348 74.4062H29.0364L27.5004 77.5625H23.2998ZM30.9173 71.0625H36.6853L33.8326 65L30.9173 71.0625Z" fill="#25345C"/>
<path d="M56.7791 77.9062C55.4625 77.9062 54.3026 77.7187 53.2368 77.3125C52.171 76.9062 51.2619 76.3437 50.5096 75.5937C49.7572 74.875 49.1616 73.9687 48.7541 72.9375C48.3466 71.9062 48.1271 70.7187 48.1271 69.4375V57.4688H51.9829V69.4375C51.9829 70.4375 52.1396 71.2812 52.4845 71.9375C52.8293 72.5937 53.2368 73.125 53.707 73.5C54.2086 73.875 54.7101 74.1562 55.2744 74.2812C55.8387 74.4375 56.3402 74.5 56.7791 74.5C57.218 74.5 57.7195 74.4375 58.2838 74.2812C58.848 74.125 59.3809 73.875 59.8512 73.5C60.3527 73.125 60.7602 72.5937 61.0737 71.9375C61.3872 71.2812 61.5753 70.4375 61.5753 69.4375V57.4688H65.431V69.4375C65.431 70.7187 65.243 71.875 64.8354 72.9375C64.4279 73.9687 63.8637 74.875 63.1113 75.5937C62.359 76.3125 61.4499 76.9062 60.3841 77.3125C59.3182 77.7187 58.127 77.9062 56.7791 77.9062Z" fill="#25345C"/>
<path d="M90.133 57.4688L80.5406 77.5625H80.3212L70.7602 57.4688H75.0234L80.4466 69.125L85.8697 57.4688H90.133Z" fill="#25345C"/>
<path d="M103.895 77.9062C102.578 77.9062 101.418 77.7187 100.352 77.3125C99.2865 76.9062 98.3774 76.3437 97.6251 75.5937C96.8727 74.875 96.2771 73.9687 95.8696 72.9375C95.4621 71.9062 95.2427 70.7187 95.2427 69.4375V57.4688H99.0984V69.4375C99.0984 70.4375 99.2552 71.2812 99.6 71.9375C99.9448 72.5937 100.352 73.125 100.823 73.5C101.324 73.875 101.826 74.1562 102.39 74.2812C102.954 74.4375 103.456 74.5 103.895 74.5C104.333 74.5 104.835 74.4375 105.399 74.2812C105.964 74.125 106.496 73.875 106.967 73.5C107.468 73.125 107.876 72.5937 108.189 71.9375C108.534 71.2812 108.691 70.4375 108.691 69.4375V57.4688H112.547V69.4375C112.547 70.7187 112.358 71.875 111.951 72.9375C111.543 73.9687 110.979 74.875 110.227 75.5937C109.475 76.3125 108.565 76.9062 107.5 77.3125C106.402 77.7187 105.211 77.9062 103.895 77.9062Z" fill="#25345C"/>
<path d="M118.032 74.9062L120.133 71.8437C121.136 72.5312 122.202 73.125 123.267 73.6562C124.333 74.1562 125.462 74.4062 126.653 74.4062C127.28 74.4062 127.844 74.3437 128.314 74.1875C128.785 74.0312 129.192 73.8437 129.537 73.5937C129.882 73.3437 130.101 73.0625 130.289 72.75C130.446 72.4375 130.54 72.125 130.54 71.8125C130.54 71.4062 130.415 71.0625 130.164 70.7812C129.913 70.5 129.6 70.25 129.161 70.0937C128.753 69.9062 128.252 69.75 127.687 69.625C127.123 69.5 126.559 69.375 125.932 69.2812C125.525 69.2187 125.054 69.125 124.521 69.0312C123.988 68.9375 123.424 68.7812 122.86 68.625C122.296 68.4375 121.731 68.2187 121.167 67.9375C120.603 67.6562 120.133 67.2812 119.694 66.875C119.255 66.4687 118.91 65.9375 118.628 65.3437C118.346 64.75 118.22 64.0625 118.22 63.25C118.22 62.0625 118.471 61.0938 118.941 60.3125C119.412 59.5313 120.039 58.9062 120.76 58.4687C121.512 58.0312 122.327 57.7187 123.236 57.5312C124.145 57.3437 125.023 57.25 125.869 57.25C126.716 57.25 127.468 57.3125 128.126 57.4062C128.785 57.5312 129.412 57.6875 129.976 57.875C130.54 58.0937 131.104 58.3437 131.637 58.6562C132.17 58.9687 132.766 59.3437 133.393 59.7812L131.23 62.8125C130.289 62.1563 129.349 61.6562 128.471 61.3125C127.593 60.9687 126.653 60.7813 125.681 60.7813C125.336 60.7813 124.96 60.8125 124.553 60.9062C124.145 61 123.738 61.125 123.362 61.3125C122.985 61.5 122.672 61.7187 122.421 62C122.17 62.2812 122.045 62.625 122.045 63.0312C122.045 63.4375 122.202 63.7812 122.484 64.0625C122.766 64.3437 123.142 64.5625 123.612 64.75C124.083 64.9375 124.584 65.0937 125.117 65.2187C125.681 65.3437 126.214 65.4687 126.716 65.5937C127.092 65.6875 127.562 65.7812 128.095 65.875C128.628 65.9687 129.161 66.0937 129.725 66.25C130.289 66.4062 130.854 66.625 131.387 66.9062C131.951 67.1875 132.421 67.5312 132.86 67.9687C133.299 68.4062 133.644 68.9375 133.894 69.5625C134.145 70.1875 134.302 70.9687 134.302 71.8437C134.302 72.875 134.114 73.7812 133.738 74.5625C133.361 75.3437 132.86 75.9687 132.17 76.4687C131.481 76.9687 130.697 77.3437 129.756 77.5937C128.816 77.8437 127.782 77.9687 126.653 77.9687C125.619 77.9687 124.678 77.875 123.894 77.75C123.111 77.5937 122.358 77.375 121.7 77.125C121.042 76.875 120.415 76.5312 119.819 76.1875C119.255 75.75 118.659 75.375 118.032 74.9062Z" fill="#25345C"/>
<path d="M27.8452 43.4062L50.6036 5.12499C54.6475 -1.68751 64.5533 -1.62502 68.5345 5.18748L70.2273 8.09374C71.8887 10.9687 75.9952 11.0937 77.8447 8.37498L79.0673 6.56249C80.478 4.49999 83.3933 4.12499 85.2741 5.74999C86.8415 7.09374 87.1864 9.34374 86.1519 11.0937L77.7507 25C75.9639 27.9375 71.7006 27.9062 69.9765 24.9375L63.4562 13.625C61.8888 10.9062 57.939 10.875 56.3402 13.5937L44.4908 33.875C41.0426 39.7812 34.7104 43.4062 27.8452 43.4062Z" fill="#25345C"/>
<path d="M107.155 3.6875L84.3964 41.9687C80.3526 48.7812 70.4467 48.7187 66.4655 41.9062L64.7728 39C63.1113 36.125 59.0048 36 57.1553 38.7187L55.9327 40.5312C54.5221 42.5937 51.6067 42.9687 49.7259 41.3437C48.1585 40 47.8137 37.75 48.8482 36L57.2493 22.0937C59.0361 19.1562 63.2994 19.1875 65.0235 22.1562L71.5439 33.4687C73.1112 36.1875 77.061 36.2187 78.6598 33.5L90.5092 13.2187C93.9574 7.3125 100.29 3.6875 107.155 3.6875Z" fill="#25345C"/>
</svg>
