<svg width="24" height="24" viewBox="0 0 24 24" fill="none" xmlns="http://www.w3.org/2000/svg">
<path d="M9 10.5156C6.24298 10.5156 3.99994 8.27271 3.99994 5.51569C3.99994 2.75867 6.24298 0.515625 9 0.515625C11.757 0.515625 14.0001 2.75867 14.0001 5.51569C14.0001 8.27271 11.757 10.5156 9 10.5156ZM9 2.01562C7.07007 2.01562 5.49994 3.58557 5.49994 5.51569C5.49994 7.44562 7.07007 9.01556 9 9.01556C10.9299 9.01556 12.5001 7.44562 12.5001 5.51569C12.5001 3.58557 10.9299 2.01562 9 2.01562Z" fill="#25345C"/>
<path d="M22.2501 23.5157H16.7499C15.785 23.5157 15 22.7307 15 21.7656V18.2657C15 17.3005 15.785 16.5156 16.7499 16.5156H22.2501C23.215 16.5156 24 17.3005 24 18.2657V21.7656C24 22.7307 23.215 23.5157 22.2501 23.5157ZM16.7499 18.0156C16.6121 18.0156 16.5 18.1276 16.5 18.2657V21.7656C16.5 21.9036 16.6121 22.0157 16.7499 22.0157H22.2501C22.3879 22.0157 22.5 21.9036 22.5 21.7656V18.2657C22.5 18.1276 22.3879 18.0156 22.2501 18.0156H16.7499Z" fill="#25345C"/>
<path d="M21.2499 18.0156H17.7501C17.3361 18.0156 17.0001 17.6796 17.0001 17.2656V15.0156C17.0001 13.6377 18.1219 12.5156 19.5 12.5156C20.8781 12.5156 21.9999 13.6377 21.9999 15.0156V17.2656C21.9999 17.6796 21.6639 18.0156 21.2499 18.0156ZM18.5001 16.5156H20.4999V15.0156C20.4999 14.4646 20.051 14.0156 19.5 14.0156C18.949 14.0156 18.5001 14.4646 18.5001 15.0156V16.5156Z" fill="#25345C"/>
<path d="M12.5001 21.5156H0.75C0.335999 21.5156 0 21.1796 0 20.7656V17.2656C0 14.6466 2.13098 12.5156 4.74994 12.5156H13.5C14.3361 12.5156 15.1589 12.7366 15.8791 13.1556C16.2371 13.3636 16.3579 13.8226 16.1501 14.1806C15.9421 14.5397 15.483 14.6596 15.124 14.4516C14.6331 14.1667 14.0709 14.0156 13.5 14.0156H4.74994C2.95807 14.0156 1.5 15.4737 1.5 17.2656V20.0156H12.5001C12.9141 20.0156 13.2501 20.3516 13.2501 20.7656C13.2501 21.1796 12.9141 21.5156 12.5001 21.5156Z" fill="#25345C"/>
</svg>
