<svg width="48" height="48" viewBox="0 0 48 48" fill="none" xmlns="http://www.w3.org/2000/svg">
<path d="M16.3591 15.4984L16.3591 15.4984L16.5859 15.3602L16.3591 15.4984Z" fill="#59596B" stroke="#59596B" stroke-width="1.5"/>
<mask id="path-2-inside-1" fill="white">
<path d="M16.5859 9.125C17.986 9.125 19.125 7.98598 19.125 6.58594C19.125 5.1859 17.986 4.04688 16.5859 4.04688C15.1859 4.04688 14.0469 5.1859 14.0469 6.58594C14.0469 7.98598 15.1859 9.125 16.5859 9.125ZM16.5859 5.0625C17.426 5.0625 18.1094 5.74591 18.1094 6.58594C18.1094 7.42596 17.426 8.10938 16.5859 8.10938C15.7459 8.10938 15.0625 7.42596 15.0625 6.58594C15.0625 5.74591 15.7459 5.0625 16.5859 5.0625Z"/>
</mask>
<path d="M16.5859 9.125C17.986 9.125 19.125 7.98598 19.125 6.58594C19.125 5.1859 17.986 4.04688 16.5859 4.04688C15.1859 4.04688 14.0469 5.1859 14.0469 6.58594C14.0469 7.98598 15.1859 9.125 16.5859 9.125ZM16.5859 5.0625C17.426 5.0625 18.1094 5.74591 18.1094 6.58594C18.1094 7.42596 17.426 8.10938 16.5859 8.10938C15.7459 8.10938 15.0625 7.42596 15.0625 6.58594C15.0625 5.74591 15.7459 5.0625 16.5859 5.0625Z" fill="#59596B"/>
<path d="M16.5859 10.625C18.8144 10.625 20.625 8.8144 20.625 6.58594H17.625C17.625 7.15755 17.1575 7.625 16.5859 7.625V10.625ZM20.625 6.58594C20.625 4.35747 18.8144 2.54688 16.5859 2.54688V5.54688C17.1575 5.54688 17.625 6.01433 17.625 6.58594H20.625ZM16.5859 2.54688C14.3575 2.54688 12.5469 4.35747 12.5469 6.58594H15.5469C15.5469 6.01433 16.0143 5.54688 16.5859 5.54688V2.54688ZM12.5469 6.58594C12.5469 8.8144 14.3575 10.625 16.5859 10.625V7.625C16.0143 7.625 15.5469 7.15755 15.5469 6.58594H12.5469ZM16.5859 6.5625C16.589 6.5625 16.5906 6.56279 16.5911 6.5629C16.5918 6.56303 16.5924 6.56322 16.5932 6.56356C16.595 6.56433 16.5984 6.56623 16.602 6.56987C16.6056 6.57351 16.6075 6.57686 16.6083 6.57869C16.6087 6.57949 16.6088 6.58012 16.609 6.58077C16.6091 6.58132 16.6094 6.58288 16.6094 6.58594H19.6094C19.6094 4.91749 18.2544 3.5625 16.5859 3.5625V6.5625ZM16.6094 6.58594C16.6094 6.58899 16.6091 6.59055 16.609 6.59111C16.6088 6.59175 16.6087 6.59238 16.6083 6.59318C16.6075 6.59501 16.6056 6.59837 16.602 6.602C16.5984 6.60564 16.595 6.60754 16.5932 6.60832C16.5924 6.60866 16.5918 6.60884 16.5911 6.60898C16.5906 6.60909 16.589 6.60938 16.5859 6.60938V9.60938C18.2544 9.60938 19.6094 8.25439 19.6094 6.58594H16.6094ZM16.5859 6.60938C16.5829 6.60938 16.5813 6.60909 16.5808 6.60898C16.5801 6.60884 16.5795 6.60866 16.5787 6.60832C16.5769 6.60754 16.5735 6.60564 16.5699 6.602C16.5662 6.59837 16.5643 6.59501 16.5636 6.59318C16.5632 6.59238 16.563 6.59175 16.5629 6.59111C16.5628 6.59055 16.5625 6.58899 16.5625 6.58594H13.5625C13.5625 8.25439 14.9175 9.60938 16.5859 9.60938V6.60938ZM16.5625 6.58594C16.5625 6.58288 16.5628 6.58132 16.5629 6.58077C16.563 6.58012 16.5632 6.57949 16.5636 6.57869C16.5643 6.57686 16.5662 6.57351 16.5699 6.56987C16.5735 6.56623 16.5769 6.56433 16.5787 6.56356C16.5795 6.56322 16.5801 6.56303 16.5808 6.5629C16.5813 6.56279 16.5829 6.5625 16.5859 6.5625V3.5625C14.9175 3.5625 13.5625 4.91749 13.5625 6.58594H16.5625Z" fill="#59596B" mask="url(#path-2-inside-1)"/>
<path d="M31.4141 23.5163L31.1901 23.659L31.1901 23.659L31.4141 23.5163ZM31.4141 23.5163L31.6381 23.6591L31.6381 23.659L31.4141 23.5163Z" fill="#59596B" stroke="#59596B" stroke-width="1.5"/>
<mask id="path-5-inside-2" fill="white">
<path d="M31.4141 12.4766C30.014 12.4766 28.875 13.6156 28.875 15.0156C28.875 16.4157 30.014 17.5547 31.4141 17.5547C32.8141 17.5547 33.9531 16.4157 33.9531 15.0156C33.9531 13.6156 32.8141 12.4766 31.4141 12.4766ZM31.4141 16.5391C30.574 16.5391 29.8906 15.8556 29.8906 15.0156C29.8906 14.1756 30.574 13.4922 31.4141 13.4922C32.2541 13.4922 32.9375 14.1756 32.9375 15.0156C32.9375 15.8556 32.2541 16.5391 31.4141 16.5391Z"/>
</mask>
<path d="M31.4141 12.4766C30.014 12.4766 28.875 13.6156 28.875 15.0156C28.875 16.4157 30.014 17.5547 31.4141 17.5547C32.8141 17.5547 33.9531 16.4157 33.9531 15.0156C33.9531 13.6156 32.8141 12.4766 31.4141 12.4766ZM31.4141 16.5391C30.574 16.5391 29.8906 15.8556 29.8906 15.0156C29.8906 14.1756 30.574 13.4922 31.4141 13.4922C32.2541 13.4922 32.9375 14.1756 32.9375 15.0156C32.9375 15.8556 32.2541 16.5391 31.4141 16.5391Z" fill="#59596B"/>
<path d="M31.4141 10.9766C29.1856 10.9766 27.375 12.7872 27.375 15.0156H30.375C30.375 14.444 30.8425 13.9766 31.4141 13.9766V10.9766ZM27.375 15.0156C27.375 17.2441 29.1856 19.0547 31.4141 19.0547V16.0547C30.8425 16.0547 30.375 15.5872 30.375 15.0156H27.375ZM31.4141 19.0547C33.6425 19.0547 35.4531 17.2441 35.4531 15.0156H32.4531C32.4531 15.5872 31.9857 16.0547 31.4141 16.0547V19.0547ZM35.4531 15.0156C35.4531 12.7872 33.6425 10.9766 31.4141 10.9766V13.9766C31.9857 13.9766 32.4531 14.444 32.4531 15.0156H35.4531ZM31.4141 15.0391C31.411 15.0391 31.4094 15.0388 31.4089 15.0387C31.4082 15.0385 31.4076 15.0383 31.4068 15.038C31.405 15.0372 31.4016 15.0353 31.398 15.0317C31.3944 15.0281 31.3925 15.0247 31.3917 15.0229C31.3913 15.0221 31.3912 15.0214 31.391 15.0208C31.3909 15.0202 31.3906 15.0187 31.3906 15.0156H28.3906C28.3906 16.6841 29.7456 18.0391 31.4141 18.0391V15.0391ZM31.3906 15.0156C31.3906 15.0126 31.3909 15.011 31.391 15.0105C31.3912 15.0098 31.3913 15.0092 31.3917 15.0084C31.3925 15.0066 31.3944 15.0032 31.398 14.9996C31.4016 14.9959 31.405 14.994 31.4068 14.9932C31.4076 14.9929 31.4082 14.9927 31.4089 14.9926C31.4094 14.9925 31.411 14.9922 31.4141 14.9922V11.9922C29.7456 11.9922 28.3906 13.3472 28.3906 15.0156H31.3906ZM31.4141 14.9922C31.4171 14.9922 31.4187 14.9925 31.4192 14.9926C31.4199 14.9927 31.4205 14.9929 31.4213 14.9932C31.4231 14.994 31.4265 14.9959 31.4301 14.9996C31.4338 15.0032 31.4357 15.0066 31.4364 15.0084C31.4368 15.0092 31.437 15.0098 31.4371 15.0105C31.4372 15.011 31.4375 15.0126 31.4375 15.0156H34.4375C34.4375 13.3472 33.0825 11.9922 31.4141 11.9922V14.9922ZM31.4375 15.0156C31.4375 15.0187 31.4372 15.0202 31.4371 15.0208C31.437 15.0214 31.4368 15.0221 31.4364 15.0229C31.4357 15.0247 31.4338 15.0281 31.4301 15.0317C31.4265 15.0353 31.4231 15.0372 31.4213 15.038C31.4205 15.0383 31.4199 15.0385 31.4192 15.0387C31.4187 15.0388 31.4171 15.0391 31.4141 15.0391V18.0391C33.0825 18.0391 34.4375 16.6841 34.4375 15.0156H31.4375Z" fill="#59596B" mask="url(#path-5-inside-2)"/>
<mask id="path-7-inside-3" fill="white">
<path d="M31.5391 12C30.139 12 29 13.139 29 14.5391C29 15.9391 30.139 17.0781 31.5391 17.0781C32.9391 17.0781 34.0781 15.9391 34.0781 14.5391C34.0781 13.139 32.9391 12 31.5391 12ZM31.5391 16.0625C30.699 16.0625 30.0156 15.3791 30.0156 14.5391C30.0156 13.699 30.699 13.0156 31.5391 13.0156C32.3791 13.0156 33.0625 13.699 33.0625 14.5391C33.0625 15.3791 32.3791 16.0625 31.5391 16.0625Z"/>
</mask>
<path d="M31.5391 12C30.139 12 29 13.139 29 14.5391C29 15.9391 30.139 17.0781 31.5391 17.0781C32.9391 17.0781 34.0781 15.9391 34.0781 14.5391C34.0781 13.139 32.9391 12 31.5391 12ZM31.5391 16.0625C30.699 16.0625 30.0156 15.3791 30.0156 14.5391C30.0156 13.699 30.699 13.0156 31.5391 13.0156C32.3791 13.0156 33.0625 13.699 33.0625 14.5391C33.0625 15.3791 32.3791 16.0625 31.5391 16.0625Z" fill="#59596B"/>
<path d="M31.5391 10.5C29.3106 10.5 27.5 12.3106 27.5 14.5391H30.5C30.5 13.9675 30.9675 13.5 31.5391 13.5V10.5ZM27.5 14.5391C27.5 16.7675 29.3106 18.5781 31.5391 18.5781V15.5781C30.9675 15.5781 30.5 15.1107 30.5 14.5391H27.5ZM31.5391 18.5781C33.7675 18.5781 35.5781 16.7675 35.5781 14.5391H32.5781C32.5781 15.1107 32.1107 15.5781 31.5391 15.5781V18.5781ZM35.5781 14.5391C35.5781 12.3106 33.7675 10.5 31.5391 10.5V13.5C32.1107 13.5 32.5781 13.9675 32.5781 14.5391H35.5781ZM31.5391 14.5625C31.536 14.5625 31.5344 14.5622 31.5339 14.5621C31.5332 14.562 31.5326 14.5618 31.5318 14.5614C31.53 14.5607 31.5266 14.5588 31.523 14.5551C31.5194 14.5515 31.5175 14.5481 31.5167 14.5463C31.5163 14.5455 31.5162 14.5449 31.516 14.5442C31.5159 14.5437 31.5156 14.5421 31.5156 14.5391H28.5156C28.5156 16.2075 29.8706 17.5625 31.5391 17.5625V14.5625ZM31.5156 14.5391C31.5156 14.536 31.5159 14.5344 31.516 14.5339C31.5162 14.5332 31.5163 14.5326 31.5167 14.5318C31.5175 14.53 31.5194 14.5266 31.523 14.523C31.5266 14.5194 31.53 14.5175 31.5318 14.5167C31.5326 14.5163 31.5332 14.5162 31.5339 14.516C31.5344 14.5159 31.536 14.5156 31.5391 14.5156V11.5156C29.8706 11.5156 28.5156 12.8706 28.5156 14.5391H31.5156ZM31.5391 14.5156C31.5421 14.5156 31.5437 14.5159 31.5442 14.516C31.5449 14.5162 31.5455 14.5163 31.5463 14.5167C31.5481 14.5175 31.5515 14.5194 31.5551 14.523C31.5588 14.5266 31.5607 14.53 31.5614 14.5318C31.5618 14.5326 31.562 14.5332 31.5621 14.5339C31.5622 14.5344 31.5625 14.536 31.5625 14.5391H34.5625C34.5625 12.8706 33.2075 11.5156 31.5391 11.5156V14.5156ZM31.5625 14.5391C31.5625 14.5421 31.5622 14.5437 31.5621 14.5442C31.562 14.5449 31.5618 14.5455 31.5614 14.5463C31.5607 14.5481 31.5588 14.5515 31.5551 14.5551C31.5515 14.5588 31.5481 14.5607 31.5463 14.5614C31.5455 14.5618 31.5449 14.562 31.5442 14.5621C31.5437 14.5622 31.5421 14.5625 31.5391 14.5625V17.5625C33.2075 17.5625 34.5625 16.2075 34.5625 14.5391H31.5625Z" fill="#59596B" mask="url(#path-7-inside-3)"/>
<path d="M22.9961 25.4766C22.9961 25.3428 23.1045 25.2344 23.2383 25.2344C23.372 25.2344 23.4805 25.3428 23.4805 25.4766C23.4805 25.6103 23.372 25.7188 23.2383 25.7188C23.1045 25.7188 22.9961 25.6103 22.9961 25.4766Z" fill="#59596B" stroke="#59596B" stroke-width="1.5"/>
<path d="M5.45881 42.5H6.77557V39.1974H8.56534C8.59517 39.1974 8.62074 39.1974 8.65057 39.1974L10.4233 42.5H11.9233L9.98864 38.9673C11.0582 38.571 11.5909 37.6804 11.5909 36.5085C11.5909 34.902 10.5938 33.7727 8.5696 33.7727H5.45881V42.5ZM6.77557 38.0639V34.902H8.42898C9.72869 34.902 10.2656 35.5199 10.2656 36.5085C10.2656 37.4929 9.72869 38.0639 8.44602 38.0639H6.77557ZM15.466 42.6321C17.3112 42.6321 18.5171 41.2812 18.5171 39.2571C18.5171 37.2202 17.3112 35.8693 15.466 35.8693C13.6208 35.8693 12.4148 37.2202 12.4148 39.2571C12.4148 41.2812 13.6208 42.6321 15.466 42.6321ZM15.4702 41.5625C14.2643 41.5625 13.7018 40.5099 13.7018 39.2528C13.7018 38 14.2643 36.9347 15.4702 36.9347C16.6677 36.9347 17.2302 38 17.2302 39.2528C17.2302 40.5099 16.6677 41.5625 15.4702 41.5625ZM23.7857 39.7855C23.7899 40.8977 22.9632 41.4261 22.2473 41.4261C21.4589 41.4261 20.9135 40.8551 20.9135 39.9645V35.9545H19.6393V40.1179C19.6393 41.7415 20.53 42.5852 21.7871 42.5852C22.7714 42.5852 23.4405 42.0653 23.743 41.3665H23.8112V42.5H25.0641V35.9545H23.7857V39.7855ZM29.5315 35.9545H28.1891V34.3864H26.915V35.9545H25.9562V36.9773H26.915V40.8423C26.9107 42.0312 27.8184 42.6065 28.8241 42.5852C29.2289 42.581 29.5016 42.5043 29.6508 42.4489L29.4207 41.3963C29.3354 41.4134 29.1778 41.4517 28.9732 41.4517C28.5599 41.4517 28.1891 41.3153 28.1891 40.5781V36.9773H29.5315V35.9545ZM33.3916 42.6321C34.8192 42.6321 35.8291 41.929 36.1189 40.8636L34.9129 40.6463C34.6828 41.2642 34.1288 41.5795 33.4044 41.5795C32.3135 41.5795 31.5805 40.8722 31.5464 39.6108H36.1999V39.1591C36.1999 36.794 34.7851 35.8693 33.3021 35.8693C31.4783 35.8693 30.2766 37.2585 30.2766 39.2699C30.2766 41.3026 31.4612 42.6321 33.3916 42.6321ZM31.5507 38.6562C31.6018 37.7273 32.2751 36.9219 33.3107 36.9219C34.2993 36.9219 34.947 37.6548 34.9513 38.6562H31.5507ZM42.2184 37.5526C41.9542 36.5341 41.1573 35.8693 39.7425 35.8693C38.2638 35.8693 37.2156 36.6491 37.2156 37.8082C37.2156 38.7372 37.7781 39.3551 39.0053 39.6278L40.1133 39.8707C40.744 40.0114 41.038 40.2926 41.038 40.7017C41.038 41.2088 40.4968 41.6051 39.6616 41.6051C38.8988 41.6051 38.4087 41.277 38.2553 40.6335L37.0238 40.821C37.2369 41.9801 38.1999 42.6321 39.6701 42.6321C41.2511 42.6321 42.3462 41.7926 42.3462 40.608C42.3462 39.6832 41.7582 39.1122 40.5565 38.8352L39.5167 38.5966C38.7965 38.4261 38.4854 38.1832 38.4897 37.7401C38.4854 37.2372 39.0309 36.8793 39.7553 36.8793C40.5479 36.8793 40.9144 37.3182 41.0636 37.7571L42.2184 37.5526Z" fill="#59596B"/>
</svg>
