<svg width="48" height="48" viewBox="0 0 48 48" fill="none" xmlns="http://www.w3.org/2000/svg">
<path d="M21.6348 21.2733V18.2156C21.6348 17.4351 22.2722 16.8023 23.0584 16.8023H25.9326C26.3102 16.8023 26.6723 16.9512 26.9393 17.2163C27.2063 17.4813 27.3563 17.8408 27.3563 18.2156V21.2733C27.3539 21.5978 27.4821 21.9099 27.7124 22.1402C27.9427 22.3705 28.2561 22.5 28.5829 22.5H30.5438C31.4596 22.5023 32.3388 22.1428 32.9872 21.5008C33.6356 20.8588 34 19.987 34 19.0778V10.3669C34 9.63246 33.6721 8.93584 33.1046 8.46467L26.434 3.17587C25.2737 2.24856 23.6111 2.2785 22.4854 3.24698L15.967 8.46467C15.3727 8.92195 15.0176 9.62064 15 10.3669V19.0689C15 20.9639 16.5474 22.5 18.4562 22.5H20.3723C21.0512 22.5 21.603 21.9562 21.6079 21.2822L21.6348 21.2733Z" fill="#7F7F94"/>
<path d="M8.95881 42.5H10.2756V38.6946H14.6264V42.5H15.9474V33.7727H14.6264V37.5653H10.2756V33.7727H8.95881V42.5ZM20.2199 42.6321C22.0651 42.6321 23.271 41.2812 23.271 39.2571C23.271 37.2202 22.0651 35.8693 20.2199 35.8693C18.3747 35.8693 17.1687 37.2202 17.1687 39.2571C17.1687 41.2812 18.3747 42.6321 20.2199 42.6321ZM20.2241 41.5625C19.0182 41.5625 18.4557 40.5099 18.4557 39.2528C18.4557 38 19.0182 36.9347 20.2241 36.9347C21.4216 36.9347 21.9841 38 21.9841 39.2528C21.9841 40.5099 21.4216 41.5625 20.2241 41.5625ZM24.3933 42.5H25.6674V38.4645C25.6674 37.5824 26.2853 36.9688 27.0097 36.9688C27.7171 36.9688 28.2072 37.4375 28.2072 38.1491V42.5H29.4771V38.3281C29.4771 37.5398 29.9586 36.9688 30.7896 36.9688C31.4629 36.9688 32.0168 37.3438 32.0168 38.2301V42.5H33.291V38.1108C33.291 36.6151 32.4558 35.8693 31.2711 35.8693C30.3293 35.8693 29.6219 36.321 29.3066 37.0199H29.2384C28.9529 36.304 28.3521 35.8693 27.4785 35.8693C26.6134 35.8693 25.97 36.2997 25.6972 37.0199H25.6163V35.9545H24.3933V42.5ZM37.5197 42.6321C38.9473 42.6321 39.9572 41.929 40.247 40.8636L39.0411 40.6463C38.8109 41.2642 38.257 41.5795 37.5325 41.5795C36.4416 41.5795 35.7087 40.8722 35.6746 39.6108H40.328V39.1591C40.328 36.794 38.9132 35.8693 37.4303 35.8693C35.6064 35.8693 34.4047 37.2585 34.4047 39.2699C34.4047 41.3026 35.5893 42.6321 37.5197 42.6321ZM35.6788 38.6562C35.73 37.7273 36.4033 36.9219 37.4388 36.9219C38.4274 36.9219 39.0751 37.6548 39.0794 38.6562H35.6788Z" fill="#7F7F94"/>
</svg>
