<svg width="48" height="48" viewBox="0 0 48 48" fill="none" xmlns="http://www.w3.org/2000/svg">
<circle cx="24.0788" cy="7.77803" r="4.77803" stroke="#59596B" stroke-width="1.5" stroke-linecap="round" stroke-linejoin="round"/>
<path fill-rule="evenodd" clip-rule="evenodd" d="M16.5 19.2014C16.4987 18.8655 16.5739 18.5338 16.7197 18.2312C17.1774 17.3158 18.468 16.8307 19.5389 16.611C20.3113 16.4462 21.0943 16.3361 21.8822 16.2815C23.3408 16.1534 24.8079 16.1534 26.2666 16.2815C27.0544 16.3367 27.8374 16.4468 28.6099 16.611C29.6808 16.8307 30.9714 17.2701 31.4291 18.2312C31.7224 18.848 31.7224 19.564 31.4291 20.1808C30.9714 21.1419 29.6808 21.5813 28.6099 21.7918C27.8384 21.9635 27.0551 22.0767 26.2666 22.1305C25.0794 22.2311 23.8866 22.2495 22.6968 22.1854C22.4222 22.1854 22.1568 22.1854 21.8822 22.1305C21.0966 22.0773 20.3163 21.9641 19.5481 21.7918C18.468 21.5813 17.1865 21.1419 16.7197 20.1808C16.5746 19.8747 16.4996 19.5402 16.5 19.2014Z" stroke="#59596B" stroke-width="1.5" stroke-linecap="round" stroke-linejoin="round"/>
<path d="M9.52841 34.9062H12.2472V42.5H13.5597V34.9062H16.2827V33.7727H9.52841V34.9062ZM19.2447 42.6321C20.6723 42.6321 21.6822 41.929 21.972 40.8636L20.7661 40.6463C20.5359 41.2642 19.982 41.5795 19.2575 41.5795C18.1666 41.5795 17.4337 40.8722 17.3996 39.6108H22.053V39.1591C22.053 36.794 20.6382 35.8693 19.1553 35.8693C17.3314 35.8693 16.1297 37.2585 16.1297 39.2699C16.1297 41.3026 17.3143 42.6321 19.2447 42.6321ZM17.4038 38.6562C17.455 37.7273 18.1283 36.9219 19.1638 36.9219C20.1524 36.9219 20.8001 37.6548 20.8044 38.6562H17.4038ZM25.0715 42.6449C26.1539 42.6449 26.7633 42.0952 27.0062 41.6051H27.0573V42.5H28.3016V38.1534C28.3016 36.2486 26.8016 35.8693 25.7619 35.8693C24.5772 35.8693 23.4863 36.3466 23.0602 37.5398L24.2576 37.8125C24.4451 37.348 24.9224 36.9006 25.7789 36.9006C26.6013 36.9006 27.0232 37.331 27.0232 38.0724V38.1023C27.0232 38.5668 26.546 38.5582 25.3698 38.6946C24.1298 38.8395 22.8599 39.1634 22.8599 40.6506C22.8599 41.9375 23.8272 42.6449 25.0715 42.6449ZM25.3485 41.6222C24.6283 41.6222 24.1085 41.2983 24.1085 40.6676C24.1085 39.9858 24.7136 39.7429 25.4508 39.6449C25.8641 39.5895 26.8442 39.4787 27.0275 39.2955V40.1392C27.0275 40.9148 26.4096 41.6222 25.3485 41.6222ZM29.6987 42.5H30.9729V38.4645C30.9729 37.5824 31.5908 36.9688 32.3152 36.9688C33.0226 36.9688 33.5126 37.4375 33.5126 38.1491V42.5H34.7825V38.3281C34.7825 37.5398 35.2641 36.9688 36.095 36.9688C36.7683 36.9688 37.3223 37.3438 37.3223 38.2301V42.5H38.5964V38.1108C38.5964 36.6151 37.7612 35.8693 36.5766 35.8693C35.6348 35.8693 34.9274 36.321 34.6121 37.0199H34.5439C34.2584 36.304 33.6575 35.8693 32.7839 35.8693C31.9189 35.8693 31.2754 36.2997 31.0027 37.0199H30.9217V35.9545H29.6987V42.5Z" fill="#59596B"/>
</svg>
