<svg width="52" height="48" viewBox="0 0 52 48" fill="none" xmlns="http://www.w3.org/2000/svg">
<path d="M29.9452 9.51453L25.5124 13.0835C24.6736 13.7412 23.4976 13.7412 22.6588 13.0835L18.188 9.51453" stroke="#59596B" stroke-width="1.5" stroke-linecap="round" stroke-linejoin="round"/>
<path fill-rule="evenodd" clip-rule="evenodd" d="M19.1582 3.73535H28.9558C30.3685 3.7512 31.7131 4.34841 32.6764 5.38791C33.6397 6.42742 34.1377 7.81846 34.0544 9.23708V16.021C34.1377 17.4396 33.6397 18.8306 32.6764 19.8701C31.7131 20.9096 30.3685 21.5068 28.9558 21.5227H19.1582C16.1238 21.5227 14.0786 19.0541 14.0786 16.021V9.23708C14.0786 6.20395 16.1238 3.73535 19.1582 3.73535Z" stroke="#59596B" stroke-width="1.5" stroke-linecap="round" stroke-linejoin="round"/>
<path d="M1.45881 33.7727V42.5H2.71165V36.1804H2.79261L5.36648 42.4872H6.40625L8.98011 36.1847H9.06108V42.5H10.3139V33.7727H8.71591L5.9375 40.5568H5.83523L3.05682 33.7727H1.45881ZM14.6471 42.6321C16.0746 42.6321 17.0846 41.929 17.3744 40.8636L16.1684 40.6463C15.9383 41.2642 15.3843 41.5795 14.6599 41.5795C13.569 41.5795 12.836 40.8722 12.8019 39.6108H17.4553V39.1591C17.4553 36.794 16.0406 35.8693 14.5576 35.8693C12.7337 35.8693 11.532 37.2585 11.532 39.2699C11.532 41.3026 12.7167 42.6321 14.6471 42.6321ZM12.8062 38.6562C12.8573 37.7273 13.5306 36.9219 14.5661 36.9219C15.5548 36.9219 16.2025 37.6548 16.2067 38.6562H12.8062ZM23.4739 37.5526C23.2097 36.5341 22.4128 35.8693 20.998 35.8693C19.5193 35.8693 18.471 36.6491 18.471 37.8082C18.471 38.7372 19.0335 39.3551 20.2608 39.6278L21.3687 39.8707C21.9994 40.0114 22.2935 40.2926 22.2935 40.7017C22.2935 41.2088 21.7523 41.6051 20.917 41.6051C20.1543 41.6051 19.6642 41.277 19.5108 40.6335L18.2793 40.821C18.4923 41.9801 19.4554 42.6321 20.9256 42.6321C22.5065 42.6321 23.6017 41.7926 23.6017 40.608C23.6017 39.6832 23.0136 39.1122 21.8119 38.8352L20.7722 38.5966C20.052 38.4261 19.7409 38.1832 19.7452 37.7401C19.7409 37.2372 20.2864 36.8793 21.0108 36.8793C21.8034 36.8793 22.1699 37.3182 22.319 37.7571L23.4739 37.5526ZM29.6075 37.5526C29.3433 36.5341 28.5464 35.8693 27.1316 35.8693C25.6529 35.8693 24.6046 36.6491 24.6046 37.8082C24.6046 38.7372 25.1671 39.3551 26.3944 39.6278L27.5023 39.8707C28.133 40.0114 28.4271 40.2926 28.4271 40.7017C28.4271 41.2088 27.8859 41.6051 27.0506 41.6051C26.2879 41.6051 25.7978 41.277 25.6444 40.6335L24.4129 40.821C24.6259 41.9801 25.589 42.6321 27.0592 42.6321C28.6401 42.6321 29.7353 41.7926 29.7353 40.608C29.7353 39.6832 29.1472 39.1122 27.9455 38.8352L26.9058 38.5966C26.1856 38.4261 25.8745 38.1832 25.8788 37.7401C25.8745 37.2372 26.42 36.8793 27.1444 36.8793C27.937 36.8793 28.3035 37.3182 28.4526 37.7571L29.6075 37.5526ZM32.7411 42.6449C33.8234 42.6449 34.4328 42.0952 34.6757 41.6051H34.7268V42.5H35.9712V38.1534C35.9712 36.2486 34.4712 35.8693 33.4314 35.8693C32.2467 35.8693 31.1558 36.3466 30.7297 37.5398L31.9271 37.8125C32.1146 37.348 32.5919 36.9006 33.4484 36.9006C34.2709 36.9006 34.6928 37.331 34.6928 38.0724V38.1023C34.6928 38.5668 34.2155 38.5582 33.0393 38.6946C31.7993 38.8395 30.5294 39.1634 30.5294 40.6506C30.5294 41.9375 31.4967 42.6449 32.7411 42.6449ZM33.018 41.6222C32.2979 41.6222 31.778 41.2983 31.778 40.6676C31.778 39.9858 32.3831 39.7429 33.1203 39.6449C33.5337 39.5895 34.5138 39.4787 34.697 39.2955V40.1392C34.697 40.9148 34.0791 41.6222 33.018 41.6222ZM40.1126 45.0909C41.7788 45.0909 43.0657 44.3281 43.0657 42.6449V35.9545H41.8171V37.0156H41.7234C41.4975 36.6108 41.0458 35.8693 39.8271 35.8693C38.2461 35.8693 37.0827 37.1179 37.0827 39.2017C37.0827 41.2898 38.2717 42.402 39.8185 42.402C41.0202 42.402 41.4847 41.7244 41.7148 41.3068H41.7958V42.5938C41.7958 43.6207 41.0927 44.0639 40.1254 44.0639C39.0643 44.0639 38.6509 43.5312 38.4251 43.1562L37.3299 43.608C37.6751 44.4091 38.5487 45.0909 40.1126 45.0909ZM40.0998 41.3452C38.962 41.3452 38.3697 40.4716 38.3697 39.1847C38.3697 37.9276 38.9492 36.9517 40.0998 36.9517C41.212 36.9517 41.8086 37.8594 41.8086 39.1847C41.8086 40.5355 41.1992 41.3452 40.0998 41.3452ZM47.2955 42.6321C48.7231 42.6321 49.733 41.929 50.0228 40.8636L48.8168 40.6463C48.5867 41.2642 48.0327 41.5795 47.3083 41.5795C46.2174 41.5795 45.4844 40.8722 45.4504 39.6108H50.1038V39.1591C50.1038 36.794 48.689 35.8693 47.206 35.8693C45.3822 35.8693 44.1805 37.2585 44.1805 39.2699C44.1805 41.3026 45.3651 42.6321 47.2955 42.6321ZM45.4546 38.6562C45.5058 37.7273 46.179 36.9219 47.2146 36.9219C48.2032 36.9219 48.8509 37.6548 48.8552 38.6562H45.4546Z" fill="#59596B"/>
</svg>
