<svg width="48" height="48" viewBox="0 0 48 48" fill="none" xmlns="http://www.w3.org/2000/svg">
<path d="M34.235 12.0129L33.7991 11.5513L32.2692 7.42741C32.0085 6.73083 31.3419 6.26929 30.5983 6.26501H19.6709C18.9274 6.26501 18.2607 6.73083 18 7.42741L16.4915 11.5001L15.8632 12.0813C15.3162 12.5471 15 13.2308 15 13.9488V19.9573C15.0043 20.9402 15.8034 21.7351 16.7863 21.7351H17.9145C18.8974 21.7351 19.6966 20.9402 19.7009 19.9573V19.0855H30.2991V19.9573C30.3034 20.9402 31.1026 21.7351 32.0855 21.7351H33.2137C34.1966 21.7351 34.9957 20.9402 35 19.9573V13.7907C34.9957 13.1197 34.7222 12.4787 34.235 12.0129ZM18.8034 7.71801C18.9402 7.35476 19.2863 7.11972 19.6709 7.11972H30.6026C30.9872 7.11972 31.3333 7.35903 31.4701 7.71801L32.8034 11.3077H31.8077C31.5726 9.70519 30.0812 8.59835 28.4786 8.83766C27.2009 9.0257 26.1966 10.03 26.0085 11.3077H17.4701L18.8034 7.71801ZM30.9359 11.3077H26.8718C27.1068 10.1838 28.2094 9.46587 29.3333 9.70091C30.1368 9.87185 30.765 10.5001 30.9359 11.3077ZM18.8462 19.9573C18.8419 20.4701 18.4274 20.8804 17.9145 20.8804H16.7863C16.2735 20.8804 15.859 20.4701 15.8547 19.9573V18.8377C16.1111 19.0043 16.4487 19.0855 16.7863 19.0855H18.8462V19.9573ZM34.1453 19.9573C34.141 20.4701 33.7265 20.8804 33.2137 20.8804H32.0855C31.5726 20.8804 31.1581 20.4659 31.1538 19.9573V19.0855H33.2137C33.5513 19.0855 33.8889 19.0043 34.1453 18.8377V19.9573ZM33.2137 18.2308H16.7863C16.2778 18.2351 15.859 17.8291 15.8547 17.3163V13.9488C15.8547 13.4787 16.0641 13.03 16.4231 12.7266C16.4274 12.7223 16.4359 12.7137 16.4402 12.7095L17.0214 12.1625H33.2051L33.6154 12.6026C33.6197 12.6112 33.6325 12.6154 33.6368 12.624C33.9573 12.9274 34.141 13.3505 34.141 13.7907V17.3163H34.1453C34.141 17.8248 33.7222 18.2351 33.2137 18.2308Z" fill="#59596B"/>
<path d="M20.6413 13.8718H17.4361C17.2011 13.8718 17.0088 14.0641 17.0088 14.2992V16.5214C17.0088 16.7564 17.2011 16.9487 17.4361 16.9487H20.6413C20.8763 16.9487 21.0686 16.7564 21.0686 16.5214V14.2992C21.0686 14.0641 20.8763 13.8718 20.6413 13.8718ZM20.2139 16.094H17.8635V14.7265H20.2139V16.094Z" fill="#59596B"/>
<path d="M32.5641 13.8718H29.359C29.1239 13.8718 28.9316 14.0641 28.9316 14.2992V16.5214C28.9316 16.7564 29.1239 16.9487 29.359 16.9487H32.5641C32.7992 16.9487 32.9915 16.7564 32.9915 16.5214V14.2992C32.9915 14.0641 32.7992 13.8718 32.5641 13.8718ZM32.1368 16.094H29.7863V14.7265H32.1368V16.094Z" fill="#59596B"/>
<path d="M27.0639 15.6666H22.9357C22.7006 15.6666 22.5083 15.8589 22.5083 16.094C22.5083 16.329 22.7006 16.5213 22.9357 16.5213H27.0639C27.2989 16.5213 27.4912 16.329 27.4912 16.094C27.4912 15.8589 27.2989 15.6666 27.0639 15.6666Z" fill="#59596B"/>
<path d="M27.0639 14.3419H22.9357C22.7006 14.3419 22.5083 14.5342 22.5083 14.7693C22.5083 15.0043 22.7006 15.1966 22.9357 15.1966H27.0639C27.2989 15.1966 27.4912 15.0043 27.4912 14.7693C27.4912 14.5342 27.2989 14.3419 27.0639 14.3419Z" fill="#59596B"/>
<path d="M5.22159 33.7727H3.7983L6.93892 42.5H8.46023L11.6009 33.7727H10.1776L7.74858 40.8807H7.65057L5.22159 33.7727ZM14.6237 42.6321C16.0512 42.6321 17.0612 41.929 17.3509 40.8636L16.145 40.6463C15.9148 41.2642 15.3609 41.5795 14.6364 41.5795C13.5455 41.5795 12.8126 40.8722 12.7785 39.6108H17.4319V39.1591C17.4319 36.794 16.0171 35.8693 14.5342 35.8693C12.7103 35.8693 11.5086 37.2585 11.5086 39.2699C11.5086 41.3026 12.6933 42.6321 14.6237 42.6321ZM12.7827 38.6562C12.8339 37.7273 13.5072 36.9219 14.5427 36.9219C15.5313 36.9219 16.179 37.6548 16.1833 38.6562H12.7827ZM19.8197 38.6136C19.8197 37.5696 20.4803 36.973 21.3879 36.973C22.2658 36.973 22.7899 37.5312 22.7899 38.4901V42.5H24.0641V38.3366C24.0641 36.7045 23.1692 35.8693 21.8226 35.8693C20.8041 35.8693 20.1905 36.3125 19.8837 37.0199H19.8027V33.7727H18.5456V42.5H19.8197V38.6136ZM25.4643 42.5H26.7385V35.9545H25.4643V42.5ZM26.1078 34.9446C26.5467 34.9446 26.9132 34.6037 26.9132 34.1861C26.9132 33.7685 26.5467 33.4233 26.1078 33.4233C25.6646 33.4233 25.3024 33.7685 25.3024 34.1861C25.3024 34.6037 25.6646 34.9446 26.1078 34.9446ZM30.9097 42.6321C32.4566 42.6321 33.458 41.7031 33.5986 40.429H32.3586C32.1967 41.1364 31.6469 41.554 30.9183 41.554C29.8401 41.554 29.1455 40.6548 29.1455 39.2273C29.1455 37.8253 29.8529 36.9432 30.9183 36.9432C31.7279 36.9432 32.2222 37.4545 32.3586 38.0682H33.5986C33.4623 36.7472 32.3842 35.8693 30.8969 35.8693C29.0518 35.8693 27.8586 37.2585 27.8586 39.2571C27.8586 41.2301 29.0092 42.6321 30.9097 42.6321ZM35.9354 33.7727H34.6612V42.5H35.9354V33.7727ZM40.1705 42.6321C41.5981 42.6321 42.608 41.929 42.8978 40.8636L41.6918 40.6463C41.4617 41.2642 40.9077 41.5795 40.1833 41.5795C39.0924 41.5795 38.3594 40.8722 38.3254 39.6108H42.9788V39.1591C42.9788 36.794 41.564 35.8693 40.081 35.8693C38.2572 35.8693 37.0555 37.2585 37.0555 39.2699C37.0555 41.3026 38.2401 42.6321 40.1705 42.6321ZM38.3296 38.6562C38.3808 37.7273 39.054 36.9219 40.0896 36.9219C41.0782 36.9219 41.7259 37.6548 41.7302 38.6562H38.3296Z" fill="#59596B"/>
</svg>
