<svg width="30" height="30" viewBox="0 0 30 30" fill="none" xmlns="http://www.w3.org/2000/svg">
<path d="M15 0C6.72867 0 0 6.72867 0 15C0 23.2713 6.72867 30 15 30C23.2713 30 30 23.2713 30 15C30 6.72867 23.2713 0 15 0ZM22.1338 22.7586C21.89 23.0024 21.5701 23.1251 21.2501 23.1251C20.9301 23.1251 20.6099 23.0024 20.3664 22.7586L14.1163 16.5088C13.8812 16.2751 13.7501 15.9574 13.7501 15.6251V7.5C13.7501 6.80878 14.3099 6.25008 15 6.25008C15.6901 6.25008 16.2499 6.80878 16.2499 7.5V15.1076L22.1338 20.9912C22.6225 21.4801 22.6225 22.27 22.1338 22.7586Z" fill="#0F72DC"/>
</svg>
