<svg width="24" height="30" viewBox="0 0 24 30" fill="none" xmlns="http://www.w3.org/2000/svg">
<path d="M3.21094 30H20.7891C22.243 30 23.4258 28.8172 23.4258 27.3633V8.78906H17.2734C15.8195 8.78906 14.6367 7.60629 14.6367 6.15234V0H3.21094C1.75699 0 0.574219 1.18277 0.574219 2.63672V27.3633C0.574219 28.8172 1.75699 30 3.21094 30ZM6.72656 12.3633H17.2734C17.7592 12.3633 18.1523 12.7564 18.1523 13.2422C18.1523 13.728 17.7592 14.1211 17.2734 14.1211H6.72656C6.24076 14.1211 5.84766 13.728 5.84766 13.2422C5.84766 12.7564 6.24076 12.3633 6.72656 12.3633ZM6.72656 15.8789H17.2734C17.7592 15.8789 18.1523 16.272 18.1523 16.7578C18.1523 17.2436 17.7592 17.6367 17.2734 17.6367H6.72656C6.24076 17.6367 5.84766 17.2436 5.84766 16.7578C5.84766 16.272 6.24076 15.8789 6.72656 15.8789ZM6.72656 19.3945H17.2734C17.7592 19.3945 18.1523 19.7876 18.1523 20.2734C18.1523 20.7592 17.7592 21.1523 17.2734 21.1523H6.72656C6.24076 21.1523 5.84766 20.7592 5.84766 20.2734C5.84766 19.7876 6.24076 19.3945 6.72656 19.3945ZM6.72656 22.9102H13.7578C14.2436 22.9102 14.6367 23.3033 14.6367 23.7891C14.6367 24.2749 14.2436 24.668 13.7578 24.668H6.72656C6.24076 24.668 5.84766 24.2749 5.84766 23.7891C5.84766 23.3033 6.24076 22.9102 6.72656 22.9102Z" fill="#0F72DC"/>
<path d="M17.2734 7.03128H22.9108L16.3945 0.515015V6.15238C16.3945 6.6373 16.7885 7.03128 17.2734 7.03128Z" fill="#0F72DC"/>
</svg>
