<svg width="24" height="30" viewBox="0 0 24 30" fill="none" xmlns="http://www.w3.org/2000/svg">
<path d="M16.6875 1.875H14.6512C14.265 0.78375 13.2225 0 12 0C10.7775 0 9.735 0.78375 9.34688 1.875H7.3125C6.795 1.875 6.375 2.295 6.375 2.8125V6.5625C6.375 7.08 6.795 7.5 7.3125 7.5H16.6875C17.205 7.5 17.625 7.08 17.625 6.5625V2.8125C17.625 2.295 17.205 1.875 16.6875 1.875Z" fill="#0F72DC"/>
<path d="M21.375 3.75H19.5V6.5625C19.5 8.11312 18.2381 9.375 16.6875 9.375H7.3125C5.76188 9.375 4.5 8.11312 4.5 6.5625V3.75H2.625C1.59188 3.75 0.75 4.59188 0.75 5.625V28.125C0.75 29.1769 1.57313 30 2.625 30H21.375C22.4269 30 23.25 29.1769 23.25 28.125V5.625C23.25 4.57313 22.4269 3.75 21.375 3.75ZM11.7262 20.3512L7.97625 24.1012C7.7925 24.2831 7.5525 24.375 7.3125 24.375C7.0725 24.375 6.8325 24.2831 6.64875 24.1012L4.77375 22.2262C4.40812 21.8606 4.40812 21.2663 4.77375 20.9006C5.13937 20.535 5.73375 20.535 6.09938 20.9006L7.3125 22.1119L10.3988 19.0256C10.7644 18.66 11.3588 18.66 11.7244 19.0256C12.09 19.3913 12.0919 19.9837 11.7262 20.3512ZM11.7262 12.8512L7.97625 16.6012C7.7925 16.7831 7.5525 16.875 7.3125 16.875C7.0725 16.875 6.8325 16.7831 6.64875 16.6012L4.77375 14.7262C4.40812 14.3606 4.40812 13.7662 4.77375 13.4006C5.13937 13.035 5.73375 13.035 6.09938 13.4006L7.3125 14.6119L10.3988 11.5256C10.7644 11.16 11.3588 11.16 11.7244 11.5256C12.09 11.8912 12.0919 12.4838 11.7262 12.8512ZM18.5625 22.5H14.8125C14.295 22.5 13.875 22.08 13.875 21.5625C13.875 21.045 14.295 20.625 14.8125 20.625H18.5625C19.08 20.625 19.5 21.045 19.5 21.5625C19.5 22.08 19.08 22.5 18.5625 22.5ZM18.5625 15H14.8125C14.295 15 13.875 14.58 13.875 14.0625C13.875 13.545 14.295 13.125 14.8125 13.125H18.5625C19.08 13.125 19.5 13.545 19.5 14.0625C19.5 14.58 19.08 15 18.5625 15Z" fill="#0F72DC"/>
</svg>
