<svg width="26" height="26" viewBox="0 0 26 26" fill="none" xmlns="http://www.w3.org/2000/svg">
<g clip-path="url(#clip0)">
<path d="M25.3854 14.7904C25.1196 14.724 24.8538 14.7904 24.6212 14.9565C23.7573 15.6875 22.7605 16.2856 21.664 16.6843C20.6339 17.0831 19.5042 17.2824 18.308 17.2824C15.6167 17.2824 13.1579 16.1859 11.3968 14.4249C9.63581 12.6639 8.53932 10.2051 8.53932 7.51371C8.53932 6.38399 8.73869 5.28751 9.07096 4.2907C9.43645 3.22744 9.96808 2.26385 10.6658 1.43318C10.9649 1.06768 10.8984 0.536053 10.5329 0.23701C10.3004 0.0708755 10.0345 0.00442163 9.76872 0.0708755C6.94443 0.835095 4.48564 2.52967 2.72461 4.7891C1.03004 7.01531 0 9.77314 0 12.7968C0 16.4185 1.46199 19.708 3.85433 22.1003C6.24667 24.4927 9.53613 25.9547 13.1579 25.9547C16.2147 25.9547 19.039 24.8914 21.2985 23.1304C23.5911 21.3361 25.2525 18.7776 25.9502 15.8537C26.1164 15.3553 25.8506 14.8901 25.3854 14.7904ZM20.3017 21.7348C18.3745 23.2633 15.9157 24.1936 13.2243 24.1936C10.0678 24.1936 7.21025 22.8978 5.15018 20.8377C3.09011 18.7776 1.79425 15.9201 1.79425 12.7636C1.79425 10.1386 2.65816 7.7463 4.15337 5.81914C5.1834 4.49006 6.47925 3.39357 7.97447 2.62935C7.80833 2.99485 7.6422 3.36034 7.50929 3.75907C7.07734 4.95524 6.87798 6.21786 6.87798 7.54694C6.87798 10.7035 8.17383 13.5942 10.2339 15.6543C12.294 17.7144 15.1847 19.0102 18.3413 19.0102C19.7368 19.0102 21.0659 18.7776 22.2953 18.3125C22.7272 18.1463 23.1592 17.9802 23.5579 17.7808C22.7605 19.3093 21.664 20.6716 20.3017 21.7348Z" fill="#C4C4C4"/>
</g>
<defs>
<clipPath id="clip0">
<rect width="26" height="26" fill="white"/>
</clipPath>
</defs>
</svg>
