<svg width="16" height="16" viewBox="0 0 16 16" fill="none" xmlns="http://www.w3.org/2000/svg">
<path d="M14.4 10.408C13.4624 10.408 12.544 10.2616 11.6736 9.97442C11.2488 9.82802 10.7664 9.94082 10.4872 10.2256L8.7616 11.5288C6.7816 10.472 5.5144 9.20562 4.472 7.24002L5.74 5.55522C6.0592 5.23602 6.1736 4.76882 6.0368 4.33122C5.74626 3.45 5.59879 2.52791 5.6 1.60002C5.6 0.938424 5.0616 0.400024 4.4 0.400024H1.6C0.938402 0.400024 0.400002 0.938424 0.400002 1.60002C0.400002 9.31922 6.6808 15.6 14.4 15.6C15.0616 15.6 15.6 15.0616 15.6 14.4V11.608C15.6 10.9464 15.0616 10.408 14.4 10.408Z" fill="#25345C"/>
</svg>
