<svg width="18" height="18" viewBox="0 0 18 18" fill="none" xmlns="http://www.w3.org/2000/svg">
<path fill-rule="evenodd" clip-rule="evenodd" d="M18 0.146341V0H17.928H17.856H17.784H17.712H17.64H17.568H17.496H17.424L0.144 10.2439C0.072 10.1707 0 10.2439 0 10.3902C0 10.5366 0.144 10.6829 0.216 10.6829L5.472 12.439L7.2 17.7805C7.2 17.8537 7.272 17.9268 7.272 17.9268C7.344 18 7.416 18 7.488 18H7.632C7.704 18 7.704 17.9268 7.704 17.9268L10.584 14.2683L14.544 15.8049H14.688C14.76 15.8049 14.832 15.8049 14.832 15.7317C14.904 15.6585 14.976 15.5854 14.976 15.5122L17.856 0.146341C17.9442 0.191165 17.9784 0.20853 17.9916 0.198437C18 0.192053 18 0.174688 18 0.146341ZM14.4 3.95122L7.992 12.7317C7.992 12.7683 7.974 12.7866 7.956 12.8049C7.938 12.8232 7.92 12.8415 7.92 12.878L7.416 16.1707L6.192 12.3659L14.4 3.95122ZM8.568 13.4634L8.136 16.3902L10.008 14.0488L8.568 13.4634Z" fill="#25345C"/>
</svg>
