<svg width="26" height="26" viewBox="0 0 26 26" fill="none" xmlns="http://www.w3.org/2000/svg">
<path d="M6.14453 13C6.14453 16.7801 9.21989 19.8555 13 19.8555C16.7801 19.8555 19.8555 16.7801 19.8555 13C19.8555 9.21989 16.7801 6.14453 13 6.14453C9.21989 6.14453 6.14453 9.21989 6.14453 13ZM13 7.66797C15.9401 7.66797 18.332 10.0599 18.332 13C18.332 15.9401 15.9401 18.332 13 18.332C10.0599 18.332 7.66797 15.9401 7.66797 13C7.66797 10.0599 10.0599 7.66797 13 7.66797Z" fill="#C4C4C4"/>
<path d="M18.9248 18.9248C18.6273 19.2223 18.6273 19.7046 18.9248 20.002L22.6026 23.6799C22.9001 23.9774 23.3824 23.9774 23.6799 23.6799C23.9773 23.3824 23.9773 22.9002 23.6799 22.6027L20.002 18.9248C19.7045 18.6273 19.2222 18.6273 18.9248 18.9248Z" fill="#C4C4C4"/>
<path d="M3.39731 2.32028C3.09989 2.0228 2.61757 2.0228 2.32009 2.32028C2.02262 2.61775 2.02262 3.10002 2.32009 3.3975L5.99797 7.07539C6.2954 7.37286 6.77772 7.37292 7.0752 7.07539C7.37267 6.77791 7.37267 6.29564 7.0752 5.99816L3.39731 2.32028Z" fill="#C4C4C4"/>
<path d="M2.32009 23.6799C2.61752 23.9773 3.09984 23.9774 3.39731 23.6799L7.0752 20.002C7.37267 19.7045 7.37267 19.2222 7.0752 18.9248C6.77777 18.6273 6.29545 18.6273 5.99797 18.9248L2.32009 22.6026C2.02262 22.9001 2.02262 23.3824 2.32009 23.6799Z" fill="#C4C4C4"/>
<path d="M23.6799 2.32028C23.3824 2.0228 22.9001 2.0228 22.6026 2.32028L18.9248 5.99816C18.6273 6.29564 18.6273 6.77791 18.9248 7.07539C19.2222 7.37286 19.7045 7.37292 20.002 7.07539L23.6799 3.3975C23.9773 3.10002 23.9773 2.61775 23.6799 2.32028Z" fill="#C4C4C4"/>
<path d="M16.2065 20.7413C15.8178 20.9022 15.6333 21.3478 15.7943 21.7365L16.3772 23.144C16.538 23.532 16.9833 23.7174 17.3725 23.5562C17.7612 23.3952 17.9457 22.9496 17.7847 22.5609L17.2018 21.1535C17.0407 20.7648 16.5952 20.5803 16.2065 20.7413Z" fill="#C4C4C4"/>
<path d="M9.79355 5.25886C10.1822 5.09788 10.3668 4.65228 10.2058 4.2636L9.62282 2.85614C9.46179 2.46746 9.01624 2.28297 8.62756 2.4439C8.23888 2.60488 8.05434 3.05048 8.21531 3.43916L8.79828 4.84662C8.95911 5.23469 9.40431 5.42009 9.79355 5.25886Z" fill="#C4C4C4"/>
<path d="M4.26365 15.7942L2.85619 16.3772C2.46751 16.5382 2.28297 16.9838 2.44395 17.3724C2.60472 17.7605 3.04998 17.9459 3.43921 17.7847L4.84667 17.2017C5.23535 17.0407 5.41989 16.5951 5.25891 16.2065C5.09793 15.8178 4.65238 15.6333 4.26365 15.7942Z" fill="#C4C4C4"/>
<path d="M21.7364 10.2059L23.1438 9.62288C23.5325 9.46191 23.717 9.0163 23.5561 8.62762C23.3951 8.23895 22.9495 8.05446 22.5608 8.21538L21.1533 8.79835C20.7647 8.95933 20.5801 9.40493 20.7411 9.79361C20.9019 10.1817 21.3471 10.367 21.7364 10.2059Z" fill="#C4C4C4"/>
<path d="M8.79828 21.1535L8.21531 22.561C8.05434 22.9496 8.23888 23.3952 8.62756 23.5562C9.01781 23.7178 9.46245 23.5311 9.62282 23.144L10.2058 21.7365C10.3668 21.3478 10.1822 20.9023 9.79355 20.7413C9.40482 20.5803 8.95926 20.7648 8.79828 21.1535Z" fill="#C4C4C4"/>
<path d="M17.2017 4.84662L17.7847 3.43916C17.9457 3.05048 17.7611 2.60493 17.3724 2.4439C16.9838 2.28297 16.5382 2.46746 16.3772 2.85614L15.7942 4.2636C15.6332 4.65228 15.8178 5.09783 16.2064 5.25886C16.5967 5.42045 17.0414 5.23372 17.2017 4.84662Z" fill="#C4C4C4"/>
<path d="M4.84667 8.79837L3.43921 8.2154C3.05053 8.05443 2.60498 8.23897 2.44395 8.62765C2.28297 9.01633 2.46751 9.46188 2.85619 9.62291L4.26365 10.2059C4.6539 10.3675 5.09854 10.1807 5.25891 9.79363C5.41989 9.40495 5.23535 8.95935 4.84667 8.79837Z" fill="#C4C4C4"/>
<path d="M23.1438 16.3772L21.7364 15.7942C21.3477 15.6333 20.9021 15.8178 20.7411 16.2065C20.5801 16.5952 20.7647 17.0407 21.1533 17.2017L22.5608 17.7847C22.9511 17.9463 23.3957 17.7596 23.5561 17.3725C23.717 16.9838 23.5325 16.5382 23.1438 16.3772Z" fill="#C4C4C4"/>
<path d="M12.2383 22.1406V25.2383C12.2383 25.659 12.5793 26 13 26C13.4207 26 13.7617 25.659 13.7617 25.2383V22.1406C13.7617 21.72 13.4207 21.3789 13 21.3789C12.5793 21.3789 12.2383 21.72 12.2383 22.1406Z" fill="#C4C4C4"/>
<path d="M13.7617 3.85938V0.761719C13.7617 0.341047 13.4207 0 13 0C12.5793 0 12.2383 0.341047 12.2383 0.761719V3.85938C12.2383 4.28005 12.5793 4.62109 13 4.62109C13.4207 4.62109 13.7617 4.28005 13.7617 3.85938Z" fill="#C4C4C4"/>
<path d="M0 13C0 13.4207 0.341047 13.7617 0.761719 13.7617H3.85938C4.28005 13.7617 4.62109 13.4207 4.62109 13C4.62109 12.5793 4.28005 12.2383 3.85938 12.2383H0.761719C0.341047 12.2383 0 12.5793 0 13Z" fill="#C4C4C4"/>
<path d="M25.2383 12.2383H22.1406C21.72 12.2383 21.3789 12.5793 21.3789 13C21.3789 13.4207 21.72 13.7617 22.1406 13.7617H25.2383C25.659 13.7617 26 13.4207 26 13C26 12.5793 25.659 12.2383 25.2383 12.2383Z" fill="#C4C4C4"/>
</svg>
