<svg width="47" height="27" viewBox="0 0 47 27" fill="none" xmlns="http://www.w3.org/2000/svg">
<path d="M0 24.9084L13.4868 2.91725C15.8832 -0.996268 21.7535 -0.960368 24.1127 2.95315L25.1159 4.62268C26.1005 6.27426 28.534 6.34607 29.6301 4.78425L30.3546 3.74304C31.1905 2.55821 32.9182 2.34279 34.0328 3.27629C34.9616 4.04822 35.1659 5.34076 34.5529 6.34607L29.5743 14.3347C28.5154 16.0222 25.989 16.0042 24.9673 14.2988L21.1033 7.80017C20.1744 6.23835 17.8338 6.2204 16.8863 7.78222L9.8643 19.433C7.82085 22.8259 4.06833 24.9084 0 24.9084Z" fill="#25345C"/>
<path d="M47 2.09166L33.5132 24.0828C31.1168 27.9963 25.2465 27.9604 22.8873 24.0468L21.8841 22.3773C20.8996 20.7257 18.466 20.6539 17.37 22.2158L16.6455 23.257C15.8095 24.4418 14.0819 24.6572 12.9673 23.7237C12.0384 22.9518 11.8341 21.6592 12.4471 20.6539L17.4257 12.6653C18.4846 10.9779 21.011 10.9958 22.0327 12.7012L25.8967 19.1998C26.8256 20.7616 29.1662 20.7796 30.1137 19.2178L37.1357 7.567C39.1792 4.17408 42.9317 2.09166 47 2.09166Z" fill="#25345C"/>
</svg>
