<svg width="75" height="75" viewBox="0 0 75 75" fill="none" xmlns="http://www.w3.org/2000/svg">
<path d="M66.0326 17.9348H58.2065L53.8859 11.413C52.2554 8.96739 49.4022 7.5 46.4674 7.5H28.5326C25.5978 7.5 22.7446 8.96739 21.1141 11.413L16.7935 17.9348H8.96739C3.99457 17.9348 0 21.9293 0 26.9022V58.5326C0 63.5054 3.99457 67.5 8.96739 67.5H66.0326C71.0054 67.5 75 63.5054 75 58.5326V26.9022C75 21.9293 71.0054 17.9348 66.0326 17.9348ZM37.5 60.163C26.3315 60.163 17.2826 51.1141 17.2826 39.9457C17.2826 28.7772 26.3315 19.8098 37.5 19.8098C48.6685 19.8098 57.7174 28.8587 57.7174 40.0272C57.7174 51.1141 48.6685 60.163 37.5 60.163ZM64.8913 30.5707C64.8098 30.5707 64.7283 30.5707 64.5652 30.5707H61.3043C59.837 30.4891 58.6957 29.2663 58.7772 27.7989C58.8587 26.413 59.9185 25.3533 61.3043 25.2717H64.5652C66.0326 25.1902 67.2554 26.3315 67.337 27.7989C67.4185 29.2663 66.3587 30.4891 64.8913 30.5707Z" fill="#C4C4C4"/>
<path d="M37.5 28.7773C31.3043 28.7773 26.25 33.8317 26.25 40.0273C26.25 46.223 31.3043 51.1958 37.5 51.1958C43.6956 51.1958 48.75 46.1415 48.75 39.9458C48.75 33.7502 43.6956 28.7773 37.5 28.7773Z" fill="#C4C4C4"/>
</svg>
